<?xml version="1.0" encoding="UTF-8" standalone="no"?>
<!DOCTYPE svg PUBLIC "-//W3C//DTD SVG 1.1//EN"
 "http://www.w3.org/Graphics/SVG/1.1/DTD/svg11.dtd">
<!-- Generated by graphviz version 2.43.0 (0)
 -->
<!-- Title: ThermalControlFlow Pages: 1 -->
<svg width="1629pt" height="352pt"
 viewBox="0.00 0.00 1628.59 352.00" xmlns="http://www.w3.org/2000/svg" xmlns:xlink="http://www.w3.org/1999/xlink">
<g id="graph0" class="graph" transform="scale(1 1) rotate(0) translate(36 316)">
<title>ThermalControlFlow</title>
<polygon fill="white" stroke="transparent" points="-36,36 -36,-316 1592.59,-316 1592.59,36 -36,36"/>
<text text-anchor="middle" x="778.3" y="-265.6" font-family="Helvetica,sans-Serif" font-size="13.00">Thermal Control Flow — Boot to Steady State</text>
<g id="clust1" class="cluster">
<title>cluster_settings</title>
<polygon fill="#e8f5e9" stroke="#4caf50" points="877.59,-53 877.59,-250 997.59,-250 997.59,-53 877.59,-53"/>
<text text-anchor="middle" x="937.59" y="-238" font-family="Helvetica,sans-Serif" font-size="10.00">Settings Applied</text>
</g>
<g id="clust2" class="cluster">
<title>cluster_watchdog</title>
<polygon fill="#fff8e1" stroke="#f5a623" points="1197.59,-8 1197.59,-169 1548.59,-169 1548.59,-8 1197.59,-8"/>
<text text-anchor="middle" x="1373.09" y="-157" font-family="Helvetica,sans-Serif" font-size="10.00">Runtime Watchdog Loop (10s)</text>
</g>
<!-- BOOT -->
<g id="node1" class="node">
<title>BOOT</title>
<ellipse fill="#1a1a2e" stroke="black" cx="69.3" cy="-150" rx="69.09" ry="21.43"/>
<text text-anchor="middle" x="69.3" y="-147.2" font-family="Helvetica,sans-Serif" font-size="11.00" fill="white">System Boot</text>
</g>
<!-- KERNEL -->
<g id="node2" class="node">
<title>KERNEL</title>
<polygon fill="#16213e" stroke="black" points="281.59,-177 175.59,-177 175.59,-123 281.59,-123 281.59,-177"/>
<text text-anchor="middle" x="228.59" y="-159.2" font-family="Helvetica,sans-Serif" font-size="11.00" fill="white">Kernel Loads</text>
<text text-anchor="middle" x="228.59" y="-147.2" font-family="Helvetica,sans-Serif" font-size="11.00" fill="white">NVIDIA Driver</text>
<text text-anchor="middle" x="228.59" y="-135.2" font-family="Helvetica,sans-Serif" font-size="11.00" fill="white">580.142</text>
</g>
<!-- BOOT&#45;&gt;KERNEL -->
<g id="edge5" class="edge">
<title>BOOT&#45;&gt;KERNEL</title>
<path fill="none" stroke="black" d="M138.83,-150C147.64,-150 156.62,-150 165.32,-150"/>
<polygon fill="black" stroke="black" points="165.37,-153.5 175.37,-150 165.37,-146.5 165.37,-153.5"/>
</g>
<!-- PERSD -->
<g id="node3" class="node">
<title>PERSD</title>
<polygon fill="#f5a623" stroke="black" points="447.59,-177 318.59,-177 318.59,-123 447.59,-123 447.59,-177"/>
<text text-anchor="middle" x="383.09" y="-159.2" font-family="Helvetica,sans-Serif" font-size="11.00" fill="#1a1a2e">nvidia&#45;persistenced</text>
<text text-anchor="middle" x="383.09" y="-147.2" font-family="Helvetica,sans-Serif" font-size="11.00" fill="#1a1a2e">starts · enables</text>
<text text-anchor="middle" x="383.09" y="-135.2" font-family="Helvetica,sans-Serif" font-size="11.00" fill="#1a1a2e">persistence mode</text>
</g>
<!-- KERNEL&#45;&gt;PERSD -->
<g id="edge6" class="edge">
<title>KERNEL&#45;&gt;PERSD</title>
<path fill="none" stroke="black" d="M281.65,-150C290.24,-150 299.28,-150 308.28,-150"/>
<polygon fill="black" stroke="black" points="308.4,-153.5 318.4,-150 308.4,-146.5 308.4,-153.5"/>
</g>
<!-- ECOSVC -->
<g id="node4" class="node">
<title>ECOSVC</title>
<polygon fill="#0f3460" stroke="black" points="651.59,-171 508.59,-171 508.59,-129 651.59,-129 651.59,-171"/>
<text text-anchor="middle" x="580.09" y="-153.2" font-family="Helvetica,sans-Serif" font-size="11.00" fill="white">gpu&#45;eco&#45;mode.service</text>
<text text-anchor="middle" x="580.09" y="-141.2" font-family="Helvetica,sans-Serif" font-size="11.00" fill="white">oneshot fires</text>
</g>
<!-- PERSD&#45;&gt;ECOSVC -->
<g id="edge7" class="edge">
<title>PERSD&#45;&gt;ECOSVC</title>
<path fill="none" stroke="black" d="M447.67,-150C463.78,-150 481.3,-150 498.14,-150"/>
<polygon fill="black" stroke="black" points="498.52,-153.5 508.52,-150 498.52,-146.5 498.52,-153.5"/>
<text text-anchor="middle" x="478.09" y="-152.8" font-family="Helvetica,sans-Serif" font-size="9.00">After=</text>
</g>
<!-- TOGGLE -->
<g id="node5" class="node">
<title>TOGGLE</title>
<polygon fill="#4fc3f7" stroke="black" points="848.59,-171 688.59,-171 688.59,-129 848.59,-129 848.59,-171"/>
<text text-anchor="middle" x="768.59" y="-153.2" font-family="Helvetica,sans-Serif" font-size="11.00" fill="#1a1a2e">gpu_power_toggle.sh eco</text>
<text text-anchor="middle" x="768.59" y="-141.2" font-family="Helvetica,sans-Serif" font-size="11.00" fill="#1a1a2e">applies settings</text>
</g>
<!-- ECOSVC&#45;&gt;TOGGLE -->
<g id="edge8" class="edge">
<title>ECOSVC&#45;&gt;TOGGLE</title>
<path fill="none" stroke="black" d="M651.6,-150C660.37,-150 669.42,-150 678.43,-150"/>
<polygon fill="black" stroke="black" points="678.55,-153.5 688.55,-150 678.55,-146.5 678.55,-153.5"/>
</g>
<!-- S1 -->
<g id="node6" class="node">
<title>S1</title>
<polygon fill="#e94560" stroke="black" points="983.59,-223 885.59,-223 885.59,-169 989.59,-169 989.59,-217 983.59,-223"/>
<polyline fill="none" stroke="black" points="983.59,-223 983.59,-217 "/>
<polyline fill="none" stroke="black" points="989.59,-217 983.59,-217 "/>
<text text-anchor="middle" x="937.59" y="-205.2" font-family="Helvetica,sans-Serif" font-size="11.00" fill="white">GPU 0 (5080)</text>
<text text-anchor="middle" x="937.59" y="-193.2" font-family="Helvetica,sans-Serif" font-size="11.00" fill="white">&#45;pm 1</text>
<text text-anchor="middle" x="937.59" y="-181.2" font-family="Helvetica,sans-Serif" font-size="11.00" fill="white">&#45;pl 300W</text>
</g>
<!-- TOGGLE&#45;&gt;S1 -->
<g id="edge9" class="edge">
<title>TOGGLE&#45;&gt;S1</title>
<path fill="none" stroke="black" d="M846.25,-171.12C856.05,-173.81 865.98,-176.55 875.49,-179.17"/>
<polygon fill="black" stroke="black" points="874.65,-182.57 885.22,-181.85 876.51,-175.82 874.65,-182.57"/>
</g>
<!-- S2 -->
<g id="node7" class="node">
<title>S2</title>
<polygon fill="#4fc3f7" stroke="black" points="983.59,-151 885.59,-151 885.59,-61 989.59,-61 989.59,-145 983.59,-151"/>
<polyline fill="none" stroke="black" points="983.59,-151 983.59,-145 "/>
<polyline fill="none" stroke="black" points="989.59,-145 983.59,-145 "/>
<text text-anchor="middle" x="937.59" y="-133.2" font-family="Helvetica,sans-Serif" font-size="11.00" fill="#1a1a2e">GPU 1 (3080)</text>
<text text-anchor="middle" x="937.59" y="-121.2" font-family="Helvetica,sans-Serif" font-size="11.00" fill="#1a1a2e">&#45;pm 1</text>
<text text-anchor="middle" x="937.59" y="-109.2" font-family="Helvetica,sans-Serif" font-size="11.00" fill="#1a1a2e">&#45;pl 300W</text>
<text text-anchor="middle" x="937.59" y="-97.2" font-family="Helvetica,sans-Serif" font-size="11.00" fill="#1a1a2e">&#45;lgc 210</text>
<text text-anchor="middle" x="937.59" y="-85.2" font-family="Helvetica,sans-Serif" font-size="11.00" fill="#1a1a2e">&#45;lmc 405</text>
<text text-anchor="middle" x="937.59" y="-73.2" font-family="Helvetica,sans-Serif" font-size="11.00" fill="#1a1a2e">&#45;gtt 70°C</text>
</g>
<!-- TOGGLE&#45;&gt;S2 -->
<g id="edge10" class="edge">
<title>TOGGLE&#45;&gt;S2</title>
<path fill="none" stroke="black" d="M848.69,-129.16C857.76,-126.77 866.89,-124.36 875.67,-122.05"/>
<polygon fill="black" stroke="black" points="876.62,-125.42 885.4,-119.49 874.84,-118.65 876.62,-125.42"/>
</g>
<!-- WDSVC -->
<g id="node8" class="node">
<title>WDSVC</title>
<polygon fill="#0f3460" stroke="black" points="1168.59,-179 1026.59,-179 1026.59,-137 1168.59,-137 1168.59,-179"/>
<text text-anchor="middle" x="1097.59" y="-161.2" font-family="Helvetica,sans-Serif" font-size="11.00" fill="white">gpu&#45;watchdog.service</text>
<text text-anchor="middle" x="1097.59" y="-149.2" font-family="Helvetica,sans-Serif" font-size="11.00" fill="white">daemon starts</text>
</g>
<!-- S1&#45;&gt;WDSVC -->
<g id="edge11" class="edge">
<title>S1&#45;&gt;WDSVC</title>
<path fill="none" stroke="black" d="M989.89,-183.66C998.43,-181.61 1007.46,-179.44 1016.51,-177.26"/>
<polygon fill="black" stroke="black" points="1017.41,-180.64 1026.31,-174.9 1015.77,-173.84 1017.41,-180.64"/>
</g>
<!-- S2&#45;&gt;WDSVC -->
<g id="edge12" class="edge">
<title>S2&#45;&gt;WDSVC</title>
<path fill="none" stroke="black" d="M989.89,-122.88C1000.41,-126.35 1011.69,-130.06 1022.82,-133.72"/>
<polygon fill="black" stroke="black" points="1021.96,-137.12 1032.55,-136.92 1024.15,-130.47 1021.96,-137.12"/>
</g>
<!-- STEADY -->
<g id="node9" class="node">
<title>STEADY</title>
<ellipse fill="#4caf50" stroke="black" cx="1296.59" cy="-215" rx="79.39" ry="38.37"/>
<text text-anchor="middle" x="1296.59" y="-224.2" font-family="Helvetica,sans-Serif" font-size="11.00" fill="white">Steady State</text>
<text text-anchor="middle" x="1296.59" y="-212.2" font-family="Helvetica,sans-Serif" font-size="11.00" fill="white">GPUs thermally</text>
<text text-anchor="middle" x="1296.59" y="-200.2" font-family="Helvetica,sans-Serif" font-size="11.00" fill="white">constrained</text>
</g>
<!-- WDSVC&#45;&gt;STEADY -->
<g id="edge14" class="edge">
<title>WDSVC&#45;&gt;STEADY</title>
<path fill="none" stroke="black" d="M1168.6,-178.26C1184.63,-182.89 1201.76,-187.85 1218.08,-192.57"/>
<polygon fill="black" stroke="black" points="1217.54,-196.06 1228.12,-195.48 1219.49,-189.34 1217.54,-196.06"/>
</g>
<!-- POLL -->
<g id="node10" class="node">
<title>POLL</title>
<polygon fill="#f5a623" stroke="black" points="1296.59,-142 1205.59,-100 1296.59,-58 1387.59,-100 1296.59,-142"/>
<text text-anchor="middle" x="1296.59" y="-103.2" font-family="Helvetica,sans-Serif" font-size="11.00" fill="#1a1a2e">Poll GPU 1</text>
<text text-anchor="middle" x="1296.59" y="-91.2" font-family="Helvetica,sans-Serif" font-size="11.00" fill="#1a1a2e">utilization</text>
</g>
<!-- WDSVC&#45;&gt;POLL -->
<g id="edge13" class="edge">
<title>WDSVC&#45;&gt;POLL</title>
<path fill="none" stroke="black" d="M1168.6,-137.39C1188.75,-131.46 1210.65,-125.01 1230.49,-119.17"/>
<polygon fill="black" stroke="black" points="1231.75,-122.45 1240.35,-116.26 1229.77,-115.73 1231.75,-122.45"/>
</g>
<!-- TOPERF -->
<g id="node11" class="node">
<title>TOPERF</title>
<polygon fill="#e94560" stroke="black" points="1540.59,-70 1424.59,-70 1424.59,-16 1540.59,-16 1540.59,-70"/>
<text text-anchor="middle" x="1482.59" y="-52.2" font-family="Helvetica,sans-Serif" font-size="11.00" fill="white">Switch → PERF</text>
<text text-anchor="middle" x="1482.59" y="-40.2" font-family="Helvetica,sans-Serif" font-size="11.00" fill="white">auto clocks</text>
<text text-anchor="middle" x="1482.59" y="-28.2" font-family="Helvetica,sans-Serif" font-size="11.00" fill="white">300W caps hold</text>
</g>
<!-- POLL&#45;&gt;TOPERF -->
<g id="edge1" class="edge">
<title>POLL&#45;&gt;TOPERF</title>
<path fill="none" stroke="#e94560" d="M1344.02,-79.66C1365.36,-72.24 1391.06,-64.09 1414.45,-57.27"/>
<polygon fill="#e94560" stroke="#e94560" points="1415.67,-60.57 1424.31,-54.44 1413.73,-53.84 1415.67,-60.57"/>
<text text-anchor="middle" x="1401.11" y="-59.26" font-family="Helvetica,sans-Serif" font-size="9.00">&gt;2% util</text>
</g>
<!-- TOECO -->
<g id="node12" class="node">
<title>TOECO</title>
<polygon fill="#0f3460" stroke="black" points="1537.59,-142 1427.59,-142 1427.59,-88 1537.59,-88 1537.59,-142"/>
<text text-anchor="middle" x="1482.59" y="-124.2" font-family="Helvetica,sans-Serif" font-size="11.00" fill="white">Switch → ECO</text>
<text text-anchor="middle" x="1482.59" y="-112.2" font-family="Helvetica,sans-Serif" font-size="11.00" fill="white">locked clocks</text>
<text text-anchor="middle" x="1482.59" y="-100.2" font-family="Helvetica,sans-Serif" font-size="11.00" fill="white">after 60s idle</text>
</g>
<!-- POLL&#45;&gt;TOECO -->
<g id="edge2" class="edge">
<title>POLL&#45;&gt;TOECO</title>
<path fill="none" stroke="#4fc3f7" d="M1386.63,-100.51C1396.98,-101.33 1407.38,-102.27 1417.3,-103.29"/>
<polygon fill="#4fc3f7" stroke="#4fc3f7" points="1417.13,-106.79 1427.45,-104.37 1417.88,-99.83 1417.13,-106.79"/>
<text text-anchor="middle" x="1390.42" y="-105.07" font-family="Helvetica,sans-Serif" font-size="9.00">60s idle</text>
</g>
<!-- TOPERF&#45;&gt;POLL -->
<g id="edge3" class="edge">
<title>TOPERF&#45;&gt;POLL</title>
<path fill="none" stroke="black" d="M1424.32,-67.05C1406.99,-72.88 1387.72,-78.95 1369.56,-84.31"/>
<polygon fill="black" stroke="black" points="1368.51,-80.97 1359.89,-87.13 1370.47,-87.69 1368.51,-80.97"/>
</g>
<!-- TOECO&#45;&gt;POLL -->
<g id="edge4" class="edge">
<title>TOECO&#45;&gt;POLL</title>
<path fill="none" stroke="black" d="M1427.49,-116.8C1410.23,-115.91 1390.8,-114.47 1372.34,-112.74"/>
<polygon fill="black" stroke="black" points="1372.5,-109.24 1362.21,-111.74 1371.82,-116.2 1372.5,-109.24"/>
</g>
</g>
</svg>
