<?xml version="1.0" encoding="UTF-8" standalone="no"?>
<!DOCTYPE svg PUBLIC "-//W3C//DTD SVG 1.1//EN"
 "http://www.w3.org/Graphics/SVG/1.1/DTD/svg11.dtd">
<!-- Generated by graphviz version 2.43.0 (0)
 -->
<!-- Title: SystemOverview Pages: 1 -->
<svg width="954pt" height="703pt"
 viewBox="0.00 0.00 954.00 702.70" xmlns="http://www.w3.org/2000/svg" xmlns:xlink="http://www.w3.org/1999/xlink">
<g id="graph0" class="graph" transform="scale(1 1) rotate(0) translate(36 666.7)">
<title>SystemOverview</title>
<polygon fill="white" stroke="transparent" points="-36,36 -36,-666.7 918,-666.7 918,36 -36,36"/>
<text text-anchor="middle" x="441" y="-616.3" font-family="Helvetica,sans-Serif" font-size="13.00">System Architecture Overview — worlock</text>
<text text-anchor="middle" x="441" y="-602.3" font-family="Helvetica,sans-Serif" font-size="13.00">Dual&#45;GPU Thermal Management</text>
<g id="clust1" class="cluster">
<title>cluster_hw</title>
<polygon fill="#1a1a2e" stroke="#e94560" points="325,-166 325,-586.7 619,-586.7 619,-166 325,-166"/>
<text text-anchor="middle" x="472" y="-573.9" font-family="Helvetica,sans-Serif" font-size="11.00" fill="white">Hardware</text>
</g>
<g id="clust2" class="cluster">
<title>cluster_driver</title>
<polygon fill="#16213e" stroke="#f5a623" points="36,-302.7 36,-489.7 317,-489.7 317,-302.7 36,-302.7"/>
<text text-anchor="middle" x="176.5" y="-476.9" font-family="Helvetica,sans-Serif" font-size="11.00" fill="white">NVIDIA Driver Stack</text>
</g>
<g id="clust3" class="cluster">
<title>cluster_thermal</title>
<polygon fill="#0f3460" stroke="#4fc3f7" points="8,-8 8,-256 307,-256 307,-8 8,-8"/>
<text text-anchor="middle" x="157.5" y="-243.2" font-family="Helvetica,sans-Serif" font-size="11.00" fill="white">Thermal Management (this repo)</text>
</g>
<g id="clust4" class="cluster">
<title>cluster_workload</title>
<polygon fill="#1a1a2e" stroke="#4caf50" points="627,-296.7 627,-386.7 874,-386.7 874,-296.7 627,-296.7"/>
<text text-anchor="middle" x="750.5" y="-373.9" font-family="Helvetica,sans-Serif" font-size="11.00" fill="white">Workloads</text>
</g>
<!-- CPU -->
<g id="node1" class="node">
<title>CPU</title>
<polygon fill="#16213e" stroke="black" points="487.5,-467.7 406.5,-467.7 402.5,-463.7 402.5,-413.7 483.5,-413.7 487.5,-417.7 487.5,-467.7"/>
<polyline fill="none" stroke="black" points="483.5,-463.7 402.5,-463.7 "/>
<polyline fill="none" stroke="black" points="483.5,-463.7 483.5,-413.7 "/>
<polyline fill="none" stroke="black" points="483.5,-463.7 487.5,-467.7 "/>
<text text-anchor="middle" x="445" y="-449.9" font-family="Helvetica,sans-Serif" font-size="11.00" fill="white">CPU</text>
<text text-anchor="middle" x="445" y="-437.9" font-family="Helvetica,sans-Serif" font-size="11.00" fill="white">AMD/Intel</text>
<text text-anchor="middle" x="445" y="-425.9" font-family="Helvetica,sans-Serif" font-size="11.00" fill="white">Host</text>
</g>
<!-- PCIE -->
<g id="node3" class="node">
<title>PCIE</title>
<ellipse fill="#0f3460" stroke="black" cx="445" cy="-331.7" rx="58.88" ry="29.9"/>
<text text-anchor="middle" x="445" y="-334.9" font-family="Helvetica,sans-Serif" font-size="11.00" fill="white">PCIe Bus</text>
<text text-anchor="middle" x="445" y="-322.9" font-family="Helvetica,sans-Serif" font-size="11.00" fill="white">Gen 4/5</text>
</g>
<!-- CPU&#45;&gt;PCIE -->
<g id="edge1" class="edge">
<title>CPU&#45;&gt;PCIE</title>
<path fill="none" stroke="black" d="M445,-413.52C445,-401 445,-385.75 445,-371.88"/>
<polygon fill="black" stroke="black" points="448.5,-371.61 445,-361.61 441.5,-371.61 448.5,-371.61"/>
</g>
<!-- RAM -->
<g id="node2" class="node">
<title>RAM</title>
<polygon fill="#16213e" stroke="black" points="495,-558.7 399,-558.7 395,-554.7 395,-516.7 491,-516.7 495,-520.7 495,-558.7"/>
<polyline fill="none" stroke="black" points="491,-554.7 395,-554.7 "/>
<polyline fill="none" stroke="black" points="491,-554.7 491,-516.7 "/>
<polyline fill="none" stroke="black" points="491,-554.7 495,-558.7 "/>
<text text-anchor="middle" x="445" y="-540.9" font-family="Helvetica,sans-Serif" font-size="11.00" fill="white">System RAM</text>
<text text-anchor="middle" x="445" y="-528.9" font-family="Helvetica,sans-Serif" font-size="11.00" fill="white">DDR5</text>
</g>
<!-- RAM&#45;&gt;CPU -->
<g id="edge2" class="edge">
<title>RAM&#45;&gt;CPU</title>
<path fill="none" stroke="black" d="M445,-516.55C445,-505.38 445,-491.14 445,-478.09"/>
<polygon fill="black" stroke="black" points="448.5,-477.96 445,-467.96 441.5,-477.96 448.5,-477.96"/>
</g>
<!-- GPU0 -->
<g id="node4" class="node">
<title>GPU0</title>
<polygon fill="#e94560" stroke="black" points="611,-240 485,-240 481,-236 481,-174 607,-174 611,-178 611,-240"/>
<polyline fill="none" stroke="black" points="607,-236 481,-236 "/>
<polyline fill="none" stroke="black" points="607,-236 607,-174 "/>
<polyline fill="none" stroke="black" points="607,-236 611,-240 "/>
<text text-anchor="middle" x="546" y="-222.2" font-family="Helvetica,sans-Serif" font-size="11.00" fill="white">GPU 0</text>
<text text-anchor="middle" x="546" y="-210.2" font-family="Helvetica,sans-Serif" font-size="11.00" fill="white">RTX 5080</text>
<text text-anchor="middle" x="546" y="-198.2" font-family="Helvetica,sans-Serif" font-size="11.00" fill="white">Blackwell</text>
<text text-anchor="middle" x="546" y="-186.2" font-family="Helvetica,sans-Serif" font-size="11.00" fill="white">~16 GB VRAM</text>
</g>
<!-- PCIE&#45;&gt;GPU0 -->
<g id="edge3" class="edge">
<title>PCIE&#45;&gt;GPU0</title>
<path fill="none" stroke="black" d="M466.92,-304.07C480.3,-287.82 497.67,-266.71 512.73,-248.42"/>
<polygon fill="black" stroke="black" points="515.81,-250.19 519.46,-240.24 510.4,-245.74 515.81,-250.19"/>
</g>
<!-- GPU1 -->
<g id="node5" class="node">
<title>GPU1</title>
<polygon fill="#4fc3f7" stroke="black" points="463,-240 337,-240 333,-236 333,-174 459,-174 463,-178 463,-240"/>
<polyline fill="none" stroke="black" points="459,-236 333,-236 "/>
<polyline fill="none" stroke="black" points="459,-236 459,-174 "/>
<polyline fill="none" stroke="black" points="459,-236 463,-240 "/>
<text text-anchor="middle" x="398" y="-222.2" font-family="Helvetica,sans-Serif" font-size="11.00" fill="#1a1a2e">GPU 1</text>
<text text-anchor="middle" x="398" y="-210.2" font-family="Helvetica,sans-Serif" font-size="11.00" fill="#1a1a2e">RTX 3080</text>
<text text-anchor="middle" x="398" y="-198.2" font-family="Helvetica,sans-Serif" font-size="11.00" fill="#1a1a2e">Ampere</text>
<text text-anchor="middle" x="398" y="-186.2" font-family="Helvetica,sans-Serif" font-size="11.00" fill="#1a1a2e">~10 GB VRAM</text>
</g>
<!-- PCIE&#45;&gt;GPU1 -->
<g id="edge4" class="edge">
<title>PCIE&#45;&gt;GPU1</title>
<path fill="none" stroke="black" d="M434.1,-302.24C428.1,-286.59 420.56,-266.89 413.91,-249.55"/>
<polygon fill="black" stroke="black" points="417.18,-248.28 410.33,-240.2 410.64,-250.79 417.18,-248.28"/>
</g>
<!-- DRV -->
<g id="node6" class="node">
<title>DRV</title>
<polygon fill="#f5a623" stroke="black" points="233,-461.7 125,-461.7 125,-419.7 233,-419.7 233,-461.7"/>
<text text-anchor="middle" x="179" y="-443.9" font-family="Helvetica,sans-Serif" font-size="11.00" fill="#1a1a2e">Driver 580.142</text>
<text text-anchor="middle" x="179" y="-431.9" font-family="Helvetica,sans-Serif" font-size="11.00" fill="#1a1a2e">CUDA 13.0</text>
</g>
<!-- PERSD -->
<g id="node7" class="node">
<title>PERSD</title>
<polygon fill="#f5a623" stroke="black" points="173.5,-352.7 44.5,-352.7 44.5,-310.7 173.5,-310.7 173.5,-352.7"/>
<text text-anchor="middle" x="109" y="-334.9" font-family="Helvetica,sans-Serif" font-size="11.00" fill="#1a1a2e">nvidia&#45;persistenced</text>
<text text-anchor="middle" x="109" y="-322.9" font-family="Helvetica,sans-Serif" font-size="11.00" fill="#1a1a2e">(systemd, active)</text>
</g>
<!-- DRV&#45;&gt;PERSD -->
<g id="edge5" class="edge">
<title>DRV&#45;&gt;PERSD</title>
<path fill="none" stroke="black" d="M165.83,-419.57C155.08,-403.13 139.74,-379.69 127.71,-361.3"/>
<polygon fill="black" stroke="black" points="130.51,-359.19 122.11,-352.73 124.65,-363.02 130.51,-359.19"/>
</g>
<!-- NSMI -->
<g id="node8" class="node">
<title>NSMI</title>
<polygon fill="#f5a623" stroke="black" points="308.5,-352.7 191.5,-352.7 191.5,-310.7 308.5,-310.7 308.5,-352.7"/>
<text text-anchor="middle" x="250" y="-334.9" font-family="Helvetica,sans-Serif" font-size="11.00" fill="#1a1a2e">nvidia&#45;smi</text>
<text text-anchor="middle" x="250" y="-322.9" font-family="Helvetica,sans-Serif" font-size="11.00" fill="#1a1a2e">Control Interface</text>
</g>
<!-- DRV&#45;&gt;NSMI -->
<g id="edge6" class="edge">
<title>DRV&#45;&gt;NSMI</title>
<path fill="none" stroke="black" d="M192.35,-419.57C203.26,-403.13 218.82,-379.69 231.02,-361.3"/>
<polygon fill="black" stroke="black" points="234.09,-363 236.71,-352.73 228.26,-359.13 234.09,-363"/>
</g>
<!-- ECO -->
<g id="node9" class="node">
<title>ECO</title>
<polygon fill="#0f3460" stroke="black" points="298.5,-137 155.5,-137 155.5,-95 298.5,-95 298.5,-137"/>
<text text-anchor="middle" x="227" y="-119.2" font-family="Helvetica,sans-Serif" font-size="11.00" fill="white">gpu&#45;eco&#45;mode.service</text>
<text text-anchor="middle" x="227" y="-107.2" font-family="Helvetica,sans-Serif" font-size="11.00" fill="white">oneshot · runs at boot</text>
</g>
<!-- PERSD&#45;&gt;ECO -->
<g id="edge12" class="edge">
<title>PERSD&#45;&gt;ECO</title>
<path fill="none" stroke="#f5a623" d="M126.15,-310.68C145.11,-288.55 173,-256 173,-256 173,-256 199.6,-187.52 215.46,-146.69"/>
<polygon fill="#f5a623" stroke="#f5a623" points="218.79,-147.8 219.15,-137.21 212.26,-145.27 218.79,-147.8"/>
<text text-anchor="middle" x="220.5" y="-204.8" font-family="Helvetica,sans-Serif" font-size="9.00">After=</text>
</g>
<!-- WD -->
<g id="node10" class="node">
<title>WD</title>
<polygon fill="#0f3460" stroke="black" points="164,-228 22,-228 22,-186 164,-186 164,-228"/>
<text text-anchor="middle" x="93" y="-210.2" font-family="Helvetica,sans-Serif" font-size="11.00" fill="white">gpu&#45;watchdog.service</text>
<text text-anchor="middle" x="93" y="-198.2" font-family="Helvetica,sans-Serif" font-size="11.00" fill="white">daemon · 10s poll</text>
</g>
<!-- PERSD&#45;&gt;WD -->
<g id="edge13" class="edge">
<title>PERSD&#45;&gt;WD</title>
<path fill="none" stroke="#f5a623" d="M106.36,-310.44C103.8,-290.81 99.89,-260.8 96.96,-238.33"/>
<polygon fill="#f5a623" stroke="#f5a623" points="100.41,-237.75 95.65,-228.29 93.47,-238.66 100.41,-237.75"/>
<text text-anchor="middle" x="115.5" y="-271.8" font-family="Helvetica,sans-Serif" font-size="9.00">After=</text>
</g>
<!-- NSMI&#45;&gt;GPU0 -->
<g id="edge14" class="edge">
<title>NSMI&#45;&gt;GPU0</title>
<path fill="none" stroke="#e94560" d="M292.12,-310.53C307.41,-303.21 321,-296.7 321,-296.7 321,-296.7 472,-256 472,-256 472,-256 478.75,-251.62 488.18,-245.5"/>
<polygon fill="#e94560" stroke="#e94560" points="490.16,-248.4 496.64,-240.02 486.35,-242.52 490.16,-248.4"/>
<text text-anchor="middle" x="458.5" y="-271.8" font-family="Helvetica,sans-Serif" font-size="9.00">&#45;pl 300W</text>
</g>
<!-- NSMI&#45;&gt;GPU1 -->
<g id="edge15" class="edge">
<title>NSMI&#45;&gt;GPU1</title>
<path fill="none" stroke="#4fc3f7" d="M259.3,-310.69C268.43,-291.04 281,-264 281,-264 281,-264 311,-256 311,-256 311,-256 319.42,-251.35 331.03,-244.95"/>
<polygon fill="#4fc3f7" stroke="#4fc3f7" points="332.9,-247.91 339.97,-240.02 329.52,-241.78 332.9,-247.91"/>
<text text-anchor="middle" x="299.5" y="-276.8" font-family="Helvetica,sans-Serif" font-size="9.00">&#45;pl 300W</text>
<text text-anchor="middle" x="299.5" y="-266.8" font-family="Helvetica,sans-Serif" font-size="9.00">&#45;gtt 70°C</text>
</g>
<!-- TOG -->
<g id="node11" class="node">
<title>TOG</title>
<polygon fill="#4fc3f7" stroke="black" points="226,-58 86,-58 86,-16 226,-16 226,-58"/>
<text text-anchor="middle" x="156" y="-40.2" font-family="Helvetica,sans-Serif" font-size="11.00" fill="#1a1a2e">gpu_power_toggle.sh</text>
<text text-anchor="middle" x="156" y="-28.2" font-family="Helvetica,sans-Serif" font-size="11.00" fill="#1a1a2e">eco | perf</text>
</g>
<!-- ECO&#45;&gt;TOG -->
<g id="edge7" class="edge">
<title>ECO&#45;&gt;TOG</title>
<path fill="none" stroke="black" d="M208.35,-94.77C200.11,-85.84 190.3,-75.2 181.41,-65.56"/>
<polygon fill="black" stroke="black" points="183.88,-63.07 174.53,-58.1 178.74,-67.82 183.88,-63.07"/>
</g>
<!-- WDSH -->
<g id="node12" class="node">
<title>WDSH</title>
<polygon fill="#4fc3f7" stroke="black" points="137.5,-137 16.5,-137 16.5,-95 137.5,-95 137.5,-137"/>
<text text-anchor="middle" x="77" y="-119.2" font-family="Helvetica,sans-Serif" font-size="11.00" fill="#1a1a2e">gpu_watchdog.sh</text>
<text text-anchor="middle" x="77" y="-107.2" font-family="Helvetica,sans-Serif" font-size="11.00" fill="#1a1a2e">utilization monitor</text>
</g>
<!-- WD&#45;&gt;WDSH -->
<g id="edge8" class="edge">
<title>WD&#45;&gt;WDSH</title>
<path fill="none" stroke="black" d="M89.37,-185.8C87.32,-174.43 84.73,-159.99 82.44,-147.28"/>
<polygon fill="black" stroke="black" points="85.83,-146.34 80.62,-137.12 78.94,-147.58 85.83,-146.34"/>
</g>
<!-- WDSH&#45;&gt;TOG -->
<g id="edge9" class="edge">
<title>WDSH&#45;&gt;TOG</title>
<path fill="none" stroke="black" d="M97.76,-94.77C107.01,-85.75 118.05,-74.99 128.02,-65.28"/>
<polygon fill="black" stroke="black" points="130.66,-67.58 135.38,-58.1 125.78,-62.57 130.66,-67.58"/>
</g>
<!-- OLLAMA -->
<g id="node13" class="node">
<title>OLLAMA</title>
<polygon fill="#4caf50" stroke="black" points="741,-358.7 635,-358.7 635,-304.7 741,-304.7 741,-358.7"/>
<text text-anchor="middle" x="688" y="-340.9" font-family="Helvetica,sans-Serif" font-size="11.00" fill="white">Ollama</text>
<text text-anchor="middle" x="688" y="-328.9" font-family="Helvetica,sans-Serif" font-size="11.00" fill="white">LLM Inference</text>
<text text-anchor="middle" x="688" y="-316.9" font-family="Helvetica,sans-Serif" font-size="11.00" fill="white">:11434</text>
</g>
<!-- OLLAMA&#45;&gt;GPU0 -->
<g id="edge10" class="edge">
<title>OLLAMA&#45;&gt;GPU0</title>
<path fill="none" stroke="#4caf50" stroke-dasharray="5,2" d="M657.89,-304.68C638.45,-287.89 612.82,-265.74 591,-246.88"/>
<polygon fill="#4caf50" stroke="#4caf50" points="593,-243.99 583.15,-240.1 588.42,-249.28 593,-243.99"/>
<text text-anchor="middle" x="697.5" y="-271.8" font-family="Helvetica,sans-Serif" font-size="9.00">CUDA_VISIBLE_DEVICES=0,1</text>
</g>
<!-- DOCKER -->
<g id="node14" class="node">
<title>DOCKER</title>
<polygon fill="#4caf50" stroke="black" points="866.5,-352.7 759.5,-352.7 759.5,-310.7 866.5,-310.7 866.5,-352.7"/>
<text text-anchor="middle" x="813" y="-334.9" font-family="Helvetica,sans-Serif" font-size="11.00" fill="white">OpenWebUI</text>
<text text-anchor="middle" x="813" y="-322.9" font-family="Helvetica,sans-Serif" font-size="11.00" fill="white">Docker · :3000</text>
</g>
<!-- DOCKER&#45;&gt;GPU0 -->
<g id="edge11" class="edge">
<title>DOCKER&#45;&gt;GPU0</title>
<path fill="none" stroke="#4caf50" stroke-dasharray="5,2" d="M798.9,-310.69C785.05,-291.04 766,-264 766,-264 766,-264 684.9,-243.36 621.18,-227.14"/>
<polygon fill="#4caf50" stroke="#4caf50" points="621.67,-223.65 611.11,-224.57 619.94,-230.43 621.67,-223.65"/>
</g>
</g>
</svg>
