<?xml version="1.0" encoding="UTF-8" standalone="no"?>
<!DOCTYPE svg PUBLIC "-//W3C//DTD SVG 1.1//EN"
 "http://www.w3.org/Graphics/SVG/1.1/DTD/svg11.dtd">
<!-- Generated by graphviz version 2.43.0 (0)
 -->
<!-- Title: ServiceDependencies Pages: 1 -->
<svg width="960pt" height="709pt"
 viewBox="0.00 0.00 960.00 709.08" xmlns="http://www.w3.org/2000/svg" xmlns:xlink="http://www.w3.org/1999/xlink">
<g id="graph0" class="graph" transform="scale(1 1) rotate(0) translate(36 673.08)">
<title>ServiceDependencies</title>
<polygon fill="white" stroke="transparent" points="-36,36 -36,-673.08 924,-673.08 924,36 -36,36"/>
<text text-anchor="middle" x="444" y="-622.68" font-family="Helvetica,sans-Serif" font-size="13.00">systemd Service Dependency Graph</text>
<text text-anchor="middle" x="444" y="-608.68" font-family="Helvetica,sans-Serif" font-size="13.00">GPU Thermal Stack — worlock</text>
<!-- SYSINIT -->
<g id="node1" class="node">
<title>SYSINIT</title>
<ellipse fill="#1a1a2e" stroke="black" cx="410" cy="-572.08" rx="74.49" ry="24.08"/>
<text text-anchor="middle" x="410" y="-569.28" font-family="Helvetica,sans-Serif" font-size="11.00" fill="white">sysinit.target</text>
</g>
<!-- BASIC -->
<g id="node2" class="node">
<title>BASIC</title>
<ellipse fill="#1a1a2e" stroke="black" cx="410" cy="-473.04" rx="70.92" ry="24.08"/>
<text text-anchor="middle" x="410" y="-470.24" font-family="Helvetica,sans-Serif" font-size="11.00" fill="white">basic.target</text>
</g>
<!-- SYSINIT&#45;&gt;BASIC -->
<g id="edge1" class="edge">
<title>SYSINIT&#45;&gt;BASIC</title>
<path fill="none" stroke="black" d="M410,-547.59C410,-535.55 410,-520.68 410,-507.47"/>
<polygon fill="black" stroke="black" points="413.5,-507.32 410,-497.32 406.5,-507.32 413.5,-507.32"/>
<text text-anchor="middle" x="419.5" y="-517.88" font-family="Helvetica,sans-Serif" font-size="9.00">after</text>
</g>
<!-- MULTI -->
<g id="node3" class="node">
<title>MULTI</title>
<ellipse fill="#1a1a2e" stroke="black" cx="473" cy="-143.5" rx="86.03" ry="24.08"/>
<text text-anchor="middle" x="473" y="-140.7" font-family="Helvetica,sans-Serif" font-size="11.00" fill="white">multi&#45;user.target</text>
</g>
<!-- BASIC&#45;&gt;MULTI -->
<g id="edge2" class="edge">
<title>BASIC&#45;&gt;MULTI</title>
<path fill="none" stroke="black" d="M426.04,-449.43C440.33,-429.3 459,-403 459,-403 459,-403 467.4,-247.86 471.19,-177.96"/>
<polygon fill="black" stroke="black" points="474.69,-178.07 471.73,-167.9 467.7,-177.69 474.69,-178.07"/>
<text text-anchor="middle" x="473.5" y="-307.8" font-family="Helvetica,sans-Serif" font-size="9.00">after</text>
</g>
<!-- PERSD -->
<g id="node4" class="node">
<title>PERSD</title>
<polygon fill="#f5a623" stroke="black" points="450,-403 234,-403 234,-333 450,-333 450,-403"/>
<text text-anchor="middle" x="342" y="-383.2" font-family="Helvetica,sans-Serif" font-size="11.00" fill="#1a1a2e">nvidia&#45;persistenced.service</text>
<text text-anchor="middle" x="342" y="-371.2" font-family="Helvetica,sans-Serif" font-size="11.00" fill="#1a1a2e">● active · running</text>
<text text-anchor="middle" x="342" y="-359.2" font-family="Helvetica,sans-Serif" font-size="11.00" fill="#1a1a2e">Keeps GPU contexts across</text>
<text text-anchor="middle" x="342" y="-347.2" font-family="Helvetica,sans-Serif" font-size="11.00" fill="#1a1a2e">app lifecycle</text>
</g>
<!-- BASIC&#45;&gt;PERSD -->
<g id="edge3" class="edge">
<title>BASIC&#45;&gt;PERSD</title>
<path fill="none" stroke="black" d="M395.08,-449.43C387.77,-438.35 378.71,-424.63 370.17,-411.68"/>
<polygon fill="black" stroke="black" points="373.08,-409.74 364.65,-403.32 367.23,-413.59 373.08,-409.74"/>
<text text-anchor="middle" x="392.5" y="-423.8" font-family="Helvetica,sans-Serif" font-size="9.00">after</text>
</g>
<!-- OLLAMA -->
<g id="node7" class="node">
<title>OLLAMA</title>
<polygon fill="#4caf50" stroke="black" points="888,-70 672,-70 672,0 888,0 888,-70"/>
<text text-anchor="middle" x="780" y="-50.2" font-family="Helvetica,sans-Serif" font-size="11.00" fill="white">ollama.service</text>
<text text-anchor="middle" x="780" y="-38.2" font-family="Helvetica,sans-Serif" font-size="11.00" fill="white">● active · running</text>
<text text-anchor="middle" x="780" y="-26.2" font-family="Helvetica,sans-Serif" font-size="11.00" fill="white">:11434 · GPU 0+1</text>
<text text-anchor="middle" x="780" y="-14.2" font-family="Helvetica,sans-Serif" font-size="11.00" fill="white">KEEP_ALIVE=60m</text>
</g>
<!-- MULTI&#45;&gt;OLLAMA -->
<g id="edge8" class="edge">
<title>MULTI&#45;&gt;OLLAMA</title>
<path fill="none" stroke="black" d="M525.43,-124.31C565.65,-110.36 622.54,-90.62 672.34,-73.35"/>
<polygon fill="black" stroke="black" points="673.57,-76.63 681.87,-70.04 671.28,-70.01 673.57,-76.63"/>
<text text-anchor="middle" x="649.5" y="-90.8" font-family="Helvetica,sans-Serif" font-size="9.00">WantedBy=</text>
</g>
<!-- OLLAMA2 -->
<g id="node8" class="node">
<title>OLLAMA2</title>
<polygon fill="#4caf50" stroke="black" points="420,-64 204,-64 204,-6 420,-6 420,-64"/>
<text text-anchor="middle" x="312" y="-44.2" font-family="Helvetica,sans-Serif" font-size="11.00" fill="white">ollama&#45;coder.service</text>
<text text-anchor="middle" x="312" y="-32.2" font-family="Helvetica,sans-Serif" font-size="11.00" fill="white">● active · running</text>
<text text-anchor="middle" x="312" y="-20.2" font-family="Helvetica,sans-Serif" font-size="11.00" fill="white">:11435 · GPU 1 only</text>
</g>
<!-- MULTI&#45;&gt;OLLAMA2 -->
<g id="edge9" class="edge">
<title>MULTI&#45;&gt;OLLAMA2</title>
<path fill="none" stroke="black" d="M440.42,-120.95C418.21,-106.26 388.36,-86.51 363.02,-69.75"/>
<polygon fill="black" stroke="black" points="364.89,-66.79 354.62,-64.19 361.03,-72.63 364.89,-66.79"/>
<text text-anchor="middle" x="426.5" y="-90.8" font-family="Helvetica,sans-Serif" font-size="9.00">WantedBy=</text>
</g>
<!-- PROXY -->
<g id="node9" class="node">
<title>PROXY</title>
<polygon fill="#888888" stroke="black" points="654,-64 438,-64 438,-6 654,-6 654,-64"/>
<text text-anchor="middle" x="546" y="-44.2" font-family="Helvetica,sans-Serif" font-size="11.00" fill="white">ollama&#45;proxy.service</text>
<text text-anchor="middle" x="546" y="-32.2" font-family="Helvetica,sans-Serif" font-size="11.00" fill="white">● activating · auto&#45;restart</text>
<text text-anchor="middle" x="546" y="-20.2" font-family="Helvetica,sans-Serif" font-size="11.00" fill="white">OpenAI&#45;compat proxy</text>
</g>
<!-- MULTI&#45;&gt;PROXY -->
<g id="edge10" class="edge">
<title>MULTI&#45;&gt;PROXY</title>
<path fill="none" stroke="black" d="M488.66,-119.65C498.06,-105.94 510.24,-88.17 520.95,-72.54"/>
<polygon fill="black" stroke="black" points="523.96,-74.34 526.73,-64.12 518.19,-70.39 523.96,-74.34"/>
<text text-anchor="middle" x="532.5" y="-90.8" font-family="Helvetica,sans-Serif" font-size="9.00">WantedBy=</text>
</g>
<!-- ECO -->
<g id="node5" class="node">
<title>ECO</title>
<polygon fill="#0f3460" stroke="black" points="216,-287 0,-287 0,-217 216,-217 216,-287"/>
<text text-anchor="middle" x="108" y="-267.2" font-family="Helvetica,sans-Serif" font-size="11.00" fill="white">gpu&#45;eco&#45;mode.service</text>
<text text-anchor="middle" x="108" y="-255.2" font-family="Helvetica,sans-Serif" font-size="11.00" fill="white">● active · exited (oneshot)</text>
<text text-anchor="middle" x="108" y="-243.2" font-family="Helvetica,sans-Serif" font-size="11.00" fill="white">Applies eco settings at boot</text>
<text text-anchor="middle" x="108" y="-231.2" font-family="Helvetica,sans-Serif" font-size="11.00" fill="white">RemainAfterExit=yes</text>
</g>
<!-- PERSD&#45;&gt;ECO -->
<g id="edge4" class="edge">
<title>PERSD&#45;&gt;ECO</title>
<path fill="none" stroke="#f5a623" d="M272.11,-332.95C245.37,-319.92 214.69,-304.98 187.15,-291.56"/>
<polygon fill="#f5a623" stroke="#f5a623" points="188.46,-288.3 177.93,-287.07 185.39,-294.6 188.46,-288.3"/>
<text text-anchor="middle" x="263.5" y="-307.8" font-family="Helvetica,sans-Serif" font-size="9.00">After= / Wants=</text>
</g>
<!-- WD -->
<g id="node6" class="node">
<title>WD</title>
<polygon fill="#0f3460" stroke="black" points="450,-287 234,-287 234,-217 450,-217 450,-287"/>
<text text-anchor="middle" x="342" y="-267.2" font-family="Helvetica,sans-Serif" font-size="11.00" fill="white">gpu&#45;watchdog.service</text>
<text text-anchor="middle" x="342" y="-255.2" font-family="Helvetica,sans-Serif" font-size="11.00" fill="white">● active · running</text>
<text text-anchor="middle" x="342" y="-243.2" font-family="Helvetica,sans-Serif" font-size="11.00" fill="white">Load&#45;based eco/perf switching</text>
<text text-anchor="middle" x="342" y="-231.2" font-family="Helvetica,sans-Serif" font-size="11.00" fill="white">Restart=always</text>
</g>
<!-- PERSD&#45;&gt;WD -->
<g id="edge5" class="edge">
<title>PERSD&#45;&gt;WD</title>
<path fill="none" stroke="#f5a623" d="M342,-332.8C342,-321.64 342,-309.08 342,-297.29"/>
<polygon fill="#f5a623" stroke="#f5a623" points="345.5,-297.18 342,-287.18 338.5,-297.18 345.5,-297.18"/>
<text text-anchor="middle" x="372.5" y="-307.8" font-family="Helvetica,sans-Serif" font-size="9.00">After= / Wants=</text>
</g>
<!-- ECO&#45;&gt;MULTI -->
<g id="edge6" class="edge">
<title>ECO&#45;&gt;MULTI</title>
<path fill="none" stroke="black" d="M216.21,-219.56C221.7,-217.96 225,-217 225,-217 225,-217 316,-199 316,-199 316,-199 367.25,-181.21 411.19,-165.96"/>
<polygon fill="black" stroke="black" points="412.42,-169.23 420.72,-162.65 410.13,-162.62 412.42,-169.23"/>
<text text-anchor="middle" x="366.5" y="-191.8" font-family="Helvetica,sans-Serif" font-size="9.00">WantedBy=</text>
</g>
<!-- TOG -->
<g id="node11" class="node">
<title>TOG</title>
<polygon fill="#fff8e1" stroke="black" points="180,-62.5 30,-62.5 30,-7.5 186,-7.5 186,-56.5 180,-62.5"/>
<polyline fill="none" stroke="black" points="180,-62.5 180,-56.5 "/>
<polyline fill="none" stroke="black" points="186,-56.5 180,-56.5 "/>
<text text-anchor="middle" x="108" y="-43.5" font-family="Helvetica,sans-Serif" font-size="10.00" fill="#1a1a2e">gpu_power_toggle.sh</text>
<text text-anchor="middle" x="108" y="-32.5" font-family="Helvetica,sans-Serif" font-size="10.00" fill="#1a1a2e">[script, not a service]</text>
<text text-anchor="middle" x="108" y="-21.5" font-family="Helvetica,sans-Serif" font-size="10.00" fill="#1a1a2e">called by eco + watchdog</text>
</g>
<!-- ECO&#45;&gt;TOG -->
<g id="edge11" class="edge">
<title>ECO&#45;&gt;TOG</title>
<path fill="none" stroke="#4fc3f7" stroke-dasharray="5,2" d="M108,-216.93C108,-177.69 108,-113.45 108,-73.01"/>
<polygon fill="#4fc3f7" stroke="#4fc3f7" points="111.5,-72.78 108,-62.78 104.5,-72.78 111.5,-72.78"/>
<text text-anchor="middle" x="130.5" y="-141.3" font-family="Helvetica,sans-Serif" font-size="9.00">ExecStart=</text>
</g>
<!-- WD&#45;&gt;MULTI -->
<g id="edge7" class="edge">
<title>WD&#45;&gt;MULTI</title>
<path fill="none" stroke="black" d="M383.45,-216.74C400.79,-202.4 417,-189 417,-189 417,-189 426.39,-181.54 437.47,-172.73"/>
<polygon fill="black" stroke="black" points="439.68,-175.45 445.33,-166.49 435.32,-169.97 439.68,-175.45"/>
<text text-anchor="middle" x="440.5" y="-191.8" font-family="Helvetica,sans-Serif" font-size="9.00">WantedBy=</text>
</g>
<!-- WDSH -->
<g id="node12" class="node">
<title>WDSH</title>
<polygon fill="#fff8e1" stroke="black" points="336.5,-171 173.5,-171 173.5,-116 342.5,-116 342.5,-165 336.5,-171"/>
<polyline fill="none" stroke="black" points="336.5,-171 336.5,-165 "/>
<polyline fill="none" stroke="black" points="342.5,-165 336.5,-165 "/>
<text text-anchor="middle" x="258" y="-152" font-family="Helvetica,sans-Serif" font-size="10.00" fill="#1a1a2e">gpu_watchdog.sh</text>
<text text-anchor="middle" x="258" y="-141" font-family="Helvetica,sans-Serif" font-size="10.00" fill="#1a1a2e">[script, not a service]</text>
<text text-anchor="middle" x="258" y="-130" font-family="Helvetica,sans-Serif" font-size="10.00" fill="#1a1a2e">exec&#39;d by watchdog daemon</text>
</g>
<!-- WD&#45;&gt;WDSH -->
<g id="edge12" class="edge">
<title>WD&#45;&gt;WDSH</title>
<path fill="none" stroke="#4fc3f7" stroke-dasharray="5,2" d="M295.43,-216.9C282.05,-207.09 271,-199 271,-199 271,-199 269.07,-190.93 266.71,-181"/>
<polygon fill="#4fc3f7" stroke="#4fc3f7" points="270.07,-180.03 264.35,-171.11 263.26,-181.65 270.07,-180.03"/>
<text text-anchor="middle" x="293.5" y="-191.8" font-family="Helvetica,sans-Serif" font-size="9.00">ExecStart=</text>
</g>
<!-- WEBUI -->
<g id="node10" class="node">
<title>WEBUI</title>
<polygon fill="#4caf50" stroke="black" points="718,-601.08 502,-601.08 502,-543.08 718,-543.08 718,-601.08"/>
<text text-anchor="middle" x="610" y="-581.28" font-family="Helvetica,sans-Serif" font-size="11.00" fill="white">open&#45;webui (Docker)</text>
<text text-anchor="middle" x="610" y="-569.28" font-family="Helvetica,sans-Serif" font-size="11.00" fill="white">● running · :3000</text>
<text text-anchor="middle" x="610" y="-557.28" font-family="Helvetica,sans-Serif" font-size="11.00" fill="white">host network mode</text>
</g>
<!-- WDSH&#45;&gt;TOG -->
<g id="edge13" class="edge">
<title>WDSH&#45;&gt;TOG</title>
<path fill="none" stroke="#4fc3f7" stroke-dasharray="5,2" d="M220.54,-115.9C200.31,-101.54 175.18,-83.7 153.8,-68.52"/>
<polygon fill="#4fc3f7" stroke="#4fc3f7" points="155.69,-65.57 145.51,-62.63 151.63,-71.27 155.69,-65.57"/>
<text text-anchor="middle" x="201.5" y="-90.8" font-family="Helvetica,sans-Serif" font-size="9.00">calls</text>
</g>
</g>
</svg>
