<?xml version="1.0" encoding="UTF-8" standalone="no"?>
<!DOCTYPE svg PUBLIC "-//W3C//DTD SVG 1.1//EN"
 "http://www.w3.org/Graphics/SVG/1.1/DTD/svg11.dtd">
<!-- Generated by graphviz version 2.43.0 (0)
 -->
<!-- Title: PowerLimitHistory Pages: 1 -->
<svg width="1784pt" height="1293pt"
 viewBox="0.00 0.00 1783.92 1293.40" xmlns="http://www.w3.org/2000/svg" xmlns:xlink="http://www.w3.org/1999/xlink">
<g id="graph0" class="graph" transform="scale(1 1) rotate(0) translate(43.2 1250.2)">
<title>PowerLimitHistory</title>
<polygon fill="#0d0d1a" stroke="transparent" points="-43.2,43.2 -43.2,-1250.2 1740.72,-1250.2 1740.72,43.2 -43.2,43.2"/>
<text text-anchor="middle" x="848.76" y="-1192.6" font-family="Helvetica,sans-Serif" font-size="13.00">GPU Power Limit History — worlock</text>
<text text-anchor="middle" x="848.76" y="-1178.6" font-family="Helvetica,sans-Serif" font-size="13.00">RTX 5080 (GPU 0) + RTX 3080 (GPU 1)</text>
<g id="clust1" class="cluster">
<title>cluster_gpu0</title>
<polygon fill="#1a0d1e" stroke="#e94560" points="1487.52,-660 1487.52,-1163 1689.52,-1163 1689.52,-660 1487.52,-660"/>
<text text-anchor="middle" x="1588.52" y="-1150.2" font-family="Helvetica,sans-Serif" font-size="11.00" fill="#e94560">GPU 0 — RTX 5080 (Blackwell)</text>
</g>
<g id="clust2" class="cluster">
<title>cluster_gpu1</title>
<polygon fill="#0d1a1e" stroke="#4fc3f7" points="1487.52,-8 1487.52,-522 1689.52,-522 1689.52,-8 1487.52,-8"/>
<text text-anchor="middle" x="1588.52" y="-509.2" font-family="Helvetica,sans-Serif" font-size="11.00" fill="#4fc3f7">GPU 1 — RTX 3080 (Ampere)</text>
</g>
<!-- EV0 -->
<g id="node1" class="node">
<title>EV0</title>
<ellipse fill="#1a1a2e" stroke="black" cx="90.51" cy="-581" rx="90.52" ry="50.82"/>
<text text-anchor="middle" x="90.51" y="-595" font-family="Helvetica,sans-Serif" font-size="10.00" fill="#aaaacc">2026&#45;05&#45;01</text>
<text text-anchor="middle" x="90.51" y="-584" font-family="Helvetica,sans-Serif" font-size="10.00" fill="#aaaacc">RTX 5080 installed</text>
<text text-anchor="middle" x="90.51" y="-573" font-family="Helvetica,sans-Serif" font-size="10.00" fill="#aaaacc">1200W PSU</text>
<text text-anchor="middle" x="90.51" y="-562" font-family="Helvetica,sans-Serif" font-size="10.00" fill="#aaaacc">CMOS reset</text>
</g>
<!-- EV1 -->
<g id="node2" class="node">
<title>EV1</title>
<polygon fill="#16213e" stroke="black" points="455.02,-617 268.02,-617 268.02,-545 455.02,-545 455.02,-617"/>
<text text-anchor="middle" x="361.52" y="-595" font-family="Helvetica,sans-Serif" font-size="10.00" fill="white">2026&#45;05&#45;01</text>
<text text-anchor="middle" x="361.52" y="-584" font-family="Helvetica,sans-Serif" font-size="10.00" fill="white">Post&#45;install state</text>
<text text-anchor="middle" x="361.52" y="-573" font-family="Helvetica,sans-Serif" font-size="10.00" fill="white">Driver 580.142 / CUDA 13.0</text>
<text text-anchor="middle" x="361.52" y="-562" font-family="Helvetica,sans-Serif" font-size="10.00" fill="white">Factory defaults active</text>
</g>
<!-- EV0&#45;&gt;EV1 -->
<g id="edge1" class="edge">
<title>EV0&#45;&gt;EV1</title>
<path fill="none" stroke="#555577" stroke-width="2" d="M181.09,-581C205.53,-581 232.22,-581 257.36,-581"/>
<polygon fill="#555577" stroke="#555577" stroke-width="2" points="257.65,-584.5 267.65,-581 257.65,-577.5 257.65,-584.5"/>
</g>
<!-- G0E0 -->
<g id="node6" class="node">
<title>G0E0</title>
<polygon fill="#111111" stroke="black" points="1642.52,-1135 1528.52,-1135 1528.52,-1085 1648.52,-1085 1648.52,-1129 1642.52,-1135"/>
<polyline fill="none" stroke="black" points="1642.52,-1135 1642.52,-1129 "/>
<polyline fill="none" stroke="black" points="1648.52,-1129 1642.52,-1129 "/>
<text text-anchor="middle" x="1588.52" y="-1113" font-family="Helvetica,sans-Serif" font-size="10.00" fill="#555555">—</text>
<text text-anchor="middle" x="1588.52" y="-1102" font-family="Helvetica,sans-Serif" font-size="10.00" fill="#555555">(not yet installed)</text>
</g>
<!-- EV0&#45;&gt;G0E0 -->
<g id="edge5" class="edge">
<title>EV0&#45;&gt;G0E0</title>
<path fill="none" stroke="#333355" stroke-dasharray="5,2" d="M117.55,-629.98C185.06,-756.96 360.52,-1087 360.52,-1087 360.52,-1087 360.52,-1087 1255.02,-1087 1255.02,-1087 1420.96,-1098.48 1518.38,-1105.22"/>
<polygon fill="#333355" stroke="#333355" points="1518.24,-1108.72 1528.46,-1105.91 1518.72,-1101.73 1518.24,-1108.72"/>
</g>
<!-- G1E0 -->
<g id="node11" class="node">
<title>G1E0</title>
<polygon fill="#002233" stroke="black" points="1668.52,-77.5 1508.52,-77.5 1508.52,-16.5 1668.52,-16.5 1668.52,-77.5"/>
<text text-anchor="middle" x="1588.52" y="-55.5" font-family="Helvetica,sans-Serif" font-size="10.00" fill="#66ddff">Limit: 340W (prior system)</text>
<text text-anchor="middle" x="1588.52" y="-44.5" font-family="Helvetica,sans-Serif" font-size="10.00" fill="#66ddff">VRAM: 10 GB GDDR6X</text>
<text text-anchor="middle" x="1588.52" y="-33.5" font-family="Helvetica,sans-Serif" font-size="10.00" fill="#66ddff">Boost: 2100 MHz max</text>
</g>
<!-- EV0&#45;&gt;G1E0 -->
<g id="edge10" class="edge">
<title>EV0&#45;&gt;G1E0</title>
<path fill="none" stroke="#4fc3f7" d="M117.06,-532.18C184.21,-403.88 360.52,-67 360.52,-67 360.52,-67 360.52,-67 1255.02,-67 1255.02,-67 1399.54,-58.31 1498.03,-52.38"/>
<polygon fill="#4fc3f7" stroke="#4fc3f7" points="1498.53,-55.86 1508.3,-51.77 1498.11,-48.87 1498.53,-55.86"/>
</g>
<!-- EV2 -->
<g id="node3" class="node">
<title>EV2</title>
<polygon fill="#0f3460" stroke="black" points="744.02,-622.5 542.02,-622.5 542.02,-539.5 744.02,-539.5 744.02,-622.5"/>
<text text-anchor="middle" x="643.02" y="-600.5" font-family="Helvetica,sans-Serif" font-size="10.00" fill="#4fc3f7">2026&#45;05&#45;04</text>
<text text-anchor="middle" x="643.02" y="-589.5" font-family="Helvetica,sans-Serif" font-size="10.00" fill="#4fc3f7">RTX 3080 idle investigation</text>
<text text-anchor="middle" x="643.02" y="-578.5" font-family="Helvetica,sans-Serif" font-size="10.00" fill="#4fc3f7">Root cause: HDMI display</text>
<text text-anchor="middle" x="643.02" y="-567.5" font-family="Helvetica,sans-Serif" font-size="10.00" fill="#4fc3f7">Fix: cable move → −90W idle</text>
<text text-anchor="middle" x="643.02" y="-556.5" font-family="Helvetica,sans-Serif" font-size="10.00" fill="#4fc3f7">No power limit change</text>
</g>
<!-- EV1&#45;&gt;EV2 -->
<g id="edge2" class="edge">
<title>EV1&#45;&gt;EV2</title>
<path fill="none" stroke="#555577" stroke-width="2" d="M455.2,-581C479.75,-581 506.49,-581 531.87,-581"/>
<polygon fill="#555577" stroke="#555577" stroke-width="2" points="531.9,-584.5 541.9,-581 531.9,-577.5 531.9,-584.5"/>
</g>
<!-- G0E1 -->
<g id="node7" class="node">
<title>G0E1</title>
<polygon fill="#440011" stroke="black" points="1661.52,-1041.5 1515.52,-1041.5 1515.52,-980.5 1661.52,-980.5 1661.52,-1041.5"/>
<text text-anchor="middle" x="1588.52" y="-1019.5" font-family="Helvetica,sans-Serif" font-size="10.00" fill="#ff6688">Limit: 360W (factory)</text>
<text text-anchor="middle" x="1588.52" y="-1008.5" font-family="Helvetica,sans-Serif" font-size="10.00" fill="#ff6688">VRAM: 16 GB GDDR7</text>
<text text-anchor="middle" x="1588.52" y="-997.5" font-family="Helvetica,sans-Serif" font-size="10.00" fill="#ff6688">Boost: 3090 MHz max</text>
</g>
<!-- EV1&#45;&gt;G0E1 -->
<g id="edge6" class="edge">
<title>EV1&#45;&gt;G0E1</title>
<path fill="none" stroke="#e94560" d="M388.06,-617.19C457.06,-714.95 642.02,-977 642.02,-977 642.02,-977 642.02,-977 1255.02,-977 1255.02,-977 1406.66,-992.51 1505.13,-1002.57"/>
<polygon fill="#e94560" stroke="#e94560" points="1505.07,-1006.09 1515.37,-1003.62 1505.78,-999.12 1505.07,-1006.09"/>
</g>
<!-- G1E1 -->
<g id="node12" class="node">
<title>G1E1</title>
<polygon fill="#002233" stroke="black" points="1665.02,-181.5 1512.02,-181.5 1512.02,-120.5 1665.02,-120.5 1665.02,-181.5"/>
<text text-anchor="middle" x="1588.52" y="-159.5" font-family="Helvetica,sans-Serif" font-size="10.00" fill="#66ddff">Limit: 340W (unchanged)</text>
<text text-anchor="middle" x="1588.52" y="-148.5" font-family="Helvetica,sans-Serif" font-size="10.00" fill="#66ddff">Draw at idle: ~100W</text>
<text text-anchor="middle" x="1588.52" y="-137.5" font-family="Helvetica,sans-Serif" font-size="10.00" fill="#66ddff">(display locked P0)</text>
</g>
<!-- EV1&#45;&gt;G1E1 -->
<g id="edge11" class="edge">
<title>EV1&#45;&gt;G1E1</title>
<path fill="none" stroke="#4fc3f7" d="M387.32,-544.88C455.73,-445.27 642.02,-174 642.02,-174 642.02,-174 642.02,-174 1255.02,-174 1255.02,-174 1402.87,-163.77 1501.39,-156.96"/>
<polygon fill="#4fc3f7" stroke="#4fc3f7" points="1501.92,-160.43 1511.65,-156.25 1501.44,-153.45 1501.92,-160.43"/>
</g>
<!-- EV3 -->
<g id="node4" class="node">
<title>EV3</title>
<polygon fill="#333311" stroke="black" points="1033.02,-617 831.02,-617 831.02,-545 1033.02,-545 1033.02,-617"/>
<text text-anchor="middle" x="932.02" y="-595" font-family="Helvetica,sans-Serif" font-size="10.00" fill="#f5a623">2026&#45;05&#45;10 (early)</text>
<text text-anchor="middle" x="932.02" y="-584" font-family="Helvetica,sans-Serif" font-size="10.00" fill="#f5a623">gpu&#45;eco&#45;mode.service deployed</text>
<text text-anchor="middle" x="932.02" y="-573" font-family="Helvetica,sans-Serif" font-size="10.00" fill="#f5a623">Python pynvml refactor</text>
<text text-anchor="middle" x="932.02" y="-562" font-family="Helvetica,sans-Serif" font-size="10.00" fill="#f5a623">Initial power caps applied</text>
</g>
<!-- EV2&#45;&gt;EV3 -->
<g id="edge3" class="edge">
<title>EV2&#45;&gt;EV3</title>
<path fill="none" stroke="#555577" stroke-width="2" d="M744.4,-581C768.98,-581 795.42,-581 820.44,-581"/>
<polygon fill="#555577" stroke="#555577" stroke-width="2" points="820.7,-584.5 830.7,-581 820.7,-577.5 820.7,-584.5"/>
</g>
<!-- G0E2 -->
<g id="node8" class="node">
<title>G0E2</title>
<polygon fill="#550022" stroke="black" points="1665.02,-937.5 1512.02,-937.5 1512.02,-876.5 1665.02,-876.5 1665.02,-937.5"/>
<text text-anchor="middle" x="1588.52" y="-915.5" font-family="Helvetica,sans-Serif" font-size="10.00" fill="#ff6688">Limit: 360W (unchanged)</text>
<text text-anchor="middle" x="1588.52" y="-904.5" font-family="Helvetica,sans-Serif" font-size="10.00" fill="#ff6688">Draw at idle: ~38W</text>
<text text-anchor="middle" x="1588.52" y="-893.5" font-family="Helvetica,sans-Serif" font-size="10.00" fill="#ff6688">(display on 5080)</text>
</g>
<!-- EV2&#45;&gt;G0E2 -->
<g id="edge7" class="edge">
<title>EV2&#45;&gt;G0E2</title>
<path fill="none" stroke="#e94560" d="M744.1,-615.58C930.51,-679.99 1327.8,-817.26 1502.31,-877.56"/>
<polygon fill="#e94560" stroke="#e94560" points="1501.37,-880.94 1511.97,-880.89 1503.66,-874.32 1501.37,-880.94"/>
</g>
<!-- G1E2 -->
<g id="node13" class="node">
<title>G1E2</title>
<polygon fill="#004455" stroke="black" points="1673.02,-285.5 1504.02,-285.5 1504.02,-224.5 1673.02,-224.5 1673.02,-285.5"/>
<text text-anchor="middle" x="1588.52" y="-263.5" font-family="Helvetica,sans-Serif" font-size="10.00" fill="#66ddff">Limit: 340W</text>
<text text-anchor="middle" x="1588.52" y="-252.5" font-family="Helvetica,sans-Serif" font-size="10.00" fill="#66ddff">Draw at idle: ~16W &#160;✓</text>
<text text-anchor="middle" x="1588.52" y="-241.5" font-family="Helvetica,sans-Serif" font-size="10.00" fill="#66ddff">(display moved, P8 reached)</text>
</g>
<!-- EV2&#45;&gt;G1E2 -->
<g id="edge12" class="edge">
<title>EV2&#45;&gt;G1E2</title>
<path fill="none" stroke="#4caf50" d="M744.1,-546.42C927.7,-482.98 1315.84,-348.87 1494.25,-287.23"/>
<polygon fill="#4caf50" stroke="#4caf50" points="1495.57,-290.47 1503.88,-283.9 1493.28,-283.86 1495.57,-290.47"/>
<text text-anchor="middle" x="1093.02" y="-431.8" font-family="Helvetica,sans-Serif" font-size="9.00">cable fix</text>
</g>
<!-- EV4 -->
<g id="node5" class="node">
<title>EV4</title>
<polygon fill="#4caf50" stroke="black" stroke-width="2" points="1355.02,-617 1153.02,-617 1153.02,-545 1355.02,-545 1355.02,-617"/>
<text text-anchor="middle" x="1254.02" y="-595" font-family="Helvetica,sans-Serif" font-size="10.00" fill="white">2026&#45;05&#45;10 (this session)</text>
<text text-anchor="middle" x="1254.02" y="-584" font-family="Helvetica,sans-Serif" font-size="10.00" fill="white">nvidia&#45;power&#45;limit.service</text>
<text text-anchor="middle" x="1254.02" y="-573" font-family="Helvetica,sans-Serif" font-size="10.00" fill="white">Further reduction applied</text>
<text text-anchor="middle" x="1254.02" y="-562" font-family="Helvetica,sans-Serif" font-size="10.00" fill="white">Persistence verified</text>
</g>
<!-- EV3&#45;&gt;EV4 -->
<g id="edge4" class="edge">
<title>EV3&#45;&gt;EV4</title>
<path fill="none" stroke="#555577" stroke-width="2" d="M1033.39,-581C1068.09,-581 1107.16,-581 1142.62,-581"/>
<polygon fill="#555577" stroke="#555577" stroke-width="2" points="1143,-584.5 1153,-581 1143,-577.5 1143,-584.5"/>
</g>
<!-- G0E3 -->
<g id="node9" class="node">
<title>G0E3</title>
<polygon fill="#883333" stroke="black" points="1665.02,-833.5 1512.02,-833.5 1512.02,-772.5 1665.02,-772.5 1665.02,-833.5"/>
<text text-anchor="middle" x="1588.52" y="-811.5" font-family="Helvetica,sans-Serif" font-size="10.00" fill="white">Limit: 300W</text>
<text text-anchor="middle" x="1588.52" y="-800.5" font-family="Helvetica,sans-Serif" font-size="10.00" fill="white">(−60W from default)</text>
<text text-anchor="middle" x="1588.52" y="-789.5" font-family="Helvetica,sans-Serif" font-size="10.00" fill="white">Boost: ~2800–3000 MHz</text>
</g>
<!-- EV3&#45;&gt;G0E3 -->
<g id="edge8" class="edge">
<title>EV3&#45;&gt;G0E3</title>
<path fill="none" stroke="#f5a623" d="M1033.14,-614.96C1161.44,-658.48 1381.66,-733.18 1502.32,-774.1"/>
<polygon fill="#f5a623" stroke="#f5a623" points="1501.31,-777.45 1511.9,-777.35 1503.55,-770.82 1501.31,-777.45"/>
</g>
<!-- G1E3 -->
<g id="node14" class="node">
<title>G1E3</title>
<polygon fill="#1a5a7a" stroke="black" points="1665.02,-389.5 1512.02,-389.5 1512.02,-328.5 1665.02,-328.5 1665.02,-389.5"/>
<text text-anchor="middle" x="1588.52" y="-367.5" font-family="Helvetica,sans-Serif" font-size="10.00" fill="white">Limit: 300W</text>
<text text-anchor="middle" x="1588.52" y="-356.5" font-family="Helvetica,sans-Serif" font-size="10.00" fill="white">(−40W from default)</text>
<text text-anchor="middle" x="1588.52" y="-345.5" font-family="Helvetica,sans-Serif" font-size="10.00" fill="white">Boost: ~1900–2050 MHz</text>
</g>
<!-- EV3&#45;&gt;G1E3 -->
<g id="edge13" class="edge">
<title>EV3&#45;&gt;G1E3</title>
<path fill="none" stroke="#f5a623" d="M1033.14,-547.04C1161.44,-503.52 1381.66,-428.82 1502.32,-387.9"/>
<polygon fill="#f5a623" stroke="#f5a623" points="1503.55,-391.18 1511.9,-384.65 1501.31,-384.55 1503.55,-391.18"/>
</g>
<!-- G0E4 -->
<g id="node10" class="node">
<title>G0E4</title>
<polygon fill="#e94560" stroke="black" stroke-width="2" points="1681.52,-729.5 1495.52,-729.5 1495.52,-668.5 1681.52,-668.5 1681.52,-729.5"/>
<text text-anchor="middle" x="1588.52" y="-707.5" font-family="Helvetica,sans-Serif" font-size="10.00" fill="white">Limit: 275W &#160;✦</text>
<text text-anchor="middle" x="1588.52" y="-696.5" font-family="Helvetica,sans-Serif" font-size="10.00" fill="white">(−85W from default, −25W step)</text>
<text text-anchor="middle" x="1588.52" y="-685.5" font-family="Helvetica,sans-Serif" font-size="10.00" fill="white">Boost: ~2700–2900 MHz</text>
</g>
<!-- EV4&#45;&gt;G0E4 -->
<g id="edge9" class="edge">
<title>EV4&#45;&gt;G0E4</title>
<path fill="none" stroke="#4caf50" stroke-width="2" d="M1355.23,-616.56C1398.61,-631.96 1449.14,-649.89 1491.98,-665.1"/>
<polygon fill="#4caf50" stroke="#4caf50" stroke-width="2" points="1490.97,-668.45 1501.56,-668.5 1493.31,-661.85 1490.97,-668.45"/>
</g>
<!-- G1E4 -->
<g id="node15" class="node">
<title>G1E4</title>
<polygon fill="#4fc3f7" stroke="black" stroke-width="2" points="1681.52,-493.5 1495.52,-493.5 1495.52,-432.5 1681.52,-432.5 1681.52,-493.5"/>
<text text-anchor="middle" x="1588.52" y="-471.5" font-family="Helvetica,sans-Serif" font-size="10.00" fill="#0d1a1e">Limit: 275W &#160;✦</text>
<text text-anchor="middle" x="1588.52" y="-460.5" font-family="Helvetica,sans-Serif" font-size="10.00" fill="#0d1a1e">(−65W from default, −25W step)</text>
<text text-anchor="middle" x="1588.52" y="-449.5" font-family="Helvetica,sans-Serif" font-size="10.00" fill="#0d1a1e">Boost: ~1800–1950 MHz</text>
</g>
<!-- EV4&#45;&gt;G1E4 -->
<g id="edge14" class="edge">
<title>EV4&#45;&gt;G1E4</title>
<path fill="none" stroke="#4caf50" stroke-width="2" d="M1355.23,-545.44C1398.61,-530.04 1449.14,-512.11 1491.98,-496.9"/>
<polygon fill="#4caf50" stroke="#4caf50" stroke-width="2" points="1493.31,-500.15 1501.56,-493.5 1490.97,-493.55 1493.31,-500.15"/>
</g>
<!-- BUDGET -->
<g id="node16" class="node">
<title>BUDGET</title>
<polygon fill="#1a2a1a" stroke="black" stroke-width="2" points="1683.02,-625 1488.02,-625 1488.02,-537 1689.02,-537 1689.02,-619 1683.02,-625"/>
<polyline fill="none" stroke="black" stroke-width="2" points="1683.02,-625 1683.02,-619 "/>
<polyline fill="none" stroke="black" stroke-width="2" points="1689.02,-619 1683.02,-619 "/>
<text text-anchor="middle" x="1588.52" y="-602.2" font-family="Helvetica,sans-Serif" font-size="11.00" fill="#4caf50">Combined Budget</text>
<text text-anchor="middle" x="1588.52" y="-590.2" font-family="Helvetica,sans-Serif" font-size="11.00" fill="#4caf50">──────────────</text>
<text text-anchor="middle" x="1588.52" y="-578.2" font-family="Helvetica,sans-Serif" font-size="11.00" fill="#4caf50">700W factory default</text>
<text text-anchor="middle" x="1588.52" y="-566.2" font-family="Helvetica,sans-Serif" font-size="11.00" fill="#4caf50">600W initial cap &#160;(−100W, 14%)</text>
<text text-anchor="middle" x="1588.52" y="-554.2" font-family="Helvetica,sans-Serif" font-size="11.00" fill="#4caf50">550W current &#160;✦ &#160;(−150W, 21%)</text>
</g>
<!-- EV4&#45;&gt;BUDGET -->
<g id="edge15" class="edge">
<title>EV4&#45;&gt;BUDGET</title>
<path fill="none" stroke="#4caf50" stroke-dasharray="5,2" d="M1355.23,-581C1393.84,-581 1438.13,-581 1477.61,-581"/>
<polygon fill="#4caf50" stroke="#4caf50" points="1477.8,-584.5 1487.8,-581 1477.8,-577.5 1477.8,-584.5"/>
<text text-anchor="middle" x="1421.52" y="-583.8" font-family="Helvetica,sans-Serif" font-size="9.00">net savings</text>
</g>
</g>
</svg>
