<?xml version="1.0" encoding="UTF-8" standalone="no"?>
<!DOCTYPE svg PUBLIC "-//W3C//DTD SVG 1.1//EN"
 "http://www.w3.org/Graphics/SVG/1.1/DTD/svg11.dtd">
<!-- Generated by graphviz version 2.43.0 (0)
 -->
<!-- Title: PowerBudget Pages: 1 -->
<svg width="994pt" height="587pt"
 viewBox="0.00 0.00 994.00 587.00" xmlns="http://www.w3.org/2000/svg" xmlns:xlink="http://www.w3.org/1999/xlink">
<g id="graph0" class="graph" transform="scale(1 1) rotate(0) translate(36 551)">
<title>PowerBudget</title>
<polygon fill="white" stroke="transparent" points="-36,36 -36,-551 958,-551 958,36 -36,36"/>
<text text-anchor="middle" x="461" y="-500.6" font-family="Helvetica,sans-Serif" font-size="13.00">Power Budget — Default vs Capped</text>
<text text-anchor="middle" x="461" y="-486.6" font-family="Helvetica,sans-Serif" font-size="13.00">RTX 5080 + RTX 3080</text>
<g id="clust1" class="cluster">
<title>cluster_5080</title>
<polygon fill="#1a1a2e" stroke="#e94560" points="29.5,-8 29.5,-157 797,-157 797,-8 29.5,-8"/>
<text text-anchor="middle" x="413.25" y="-144.2" font-family="Helvetica,sans-Serif" font-size="11.00" fill="white">RTX 5080 (Blackwell) — GPU 0</text>
</g>
<g id="clust2" class="cluster">
<title>cluster_3080</title>
<polygon fill="#1a1a2e" stroke="#4fc3f7" points="29.5,-165 29.5,-379 914,-379 914,-165 29.5,-165"/>
<text text-anchor="middle" x="471.75" y="-366.2" font-family="Helvetica,sans-Serif" font-size="11.00" fill="white">RTX 3080 (Ampere) — GPU 1</text>
</g>
<g id="clust3" class="cluster">
<title>cluster_total</title>
<polygon fill="#0f3460" stroke="#4caf50" points="8,-387 8,-471 672,-471 672,-387 8,-387"/>
<text text-anchor="middle" x="340" y="-458.2" font-family="Helvetica,sans-Serif" font-size="11.00" fill="white">Combined Budget</text>
</g>
<!-- A1 -->
<g id="node1" class="node">
<title>A1</title>
<polygon fill="#16213e" stroke="black" points="109.5,-90 37.5,-90 37.5,-54 109.5,-54 109.5,-90"/>
<text text-anchor="middle" x="73.5" y="-75" font-family="Helvetica,sans-Serif" font-size="10.00" fill="#aaaaaa">Min</text>
<text text-anchor="middle" x="73.5" y="-64" font-family="Helvetica,sans-Serif" font-size="10.00" fill="#aaaaaa">250W</text>
</g>
<!-- A2 -->
<g id="node2" class="node">
<title>A2</title>
<polygon fill="#e94560" stroke="black" points="316,-95.5 213,-95.5 213,-48.5 316,-48.5 316,-95.5"/>
<text text-anchor="middle" x="264.5" y="-80.5" font-family="Helvetica,sans-Serif" font-size="10.00" fill="white">CURRENT CAP</text>
<text text-anchor="middle" x="264.5" y="-69.5" font-family="Helvetica,sans-Serif" font-size="10.00" fill="white">275W</text>
<text text-anchor="middle" x="264.5" y="-58.5" font-family="Helvetica,sans-Serif" font-size="10.00" fill="white">(this repo)</text>
</g>
<!-- A1&#45;&gt;A2 -->
<!-- A2b -->
<g id="node3" class="node">
<title>A2b</title>
<polygon fill="#883333" stroke="black" points="518,-63.5 411,-63.5 411,-16.5 518,-16.5 518,-63.5"/>
<text text-anchor="middle" x="464.5" y="-48.5" font-family="Helvetica,sans-Serif" font-size="10.00" fill="white">PRIOR CAP</text>
<text text-anchor="middle" x="464.5" y="-37.5" font-family="Helvetica,sans-Serif" font-size="10.00" fill="white">300W</text>
<text text-anchor="middle" x="464.5" y="-26.5" font-family="Helvetica,sans-Serif" font-size="10.00" fill="white">(2026&#45;05&#45;10 early)</text>
</g>
<!-- A2&#45;&gt;A2b -->
<!-- SAV5 -->
<g id="node6" class="node">
<title>SAV5</title>
<polygon fill="#fff8e1" stroke="black" points="515,-128.5 408,-128.5 408,-81.5 521,-81.5 521,-122.5 515,-128.5"/>
<polyline fill="none" stroke="black" points="515,-128.5 515,-122.5 "/>
<polyline fill="none" stroke="black" points="521,-122.5 515,-122.5 "/>
<text text-anchor="middle" x="464.5" y="-113.5" font-family="Helvetica,sans-Serif" font-size="10.00" fill="#1a1a2e">Saved: 85W</text>
<text text-anchor="middle" x="464.5" y="-102.5" font-family="Helvetica,sans-Serif" font-size="10.00" fill="#1a1a2e">(24% reduction)</text>
<text text-anchor="middle" x="464.5" y="-91.5" font-family="Helvetica,sans-Serif" font-size="10.00" fill="#1a1a2e">from factory default</text>
</g>
<!-- A2&#45;&gt;SAV5 -->
<g id="edge5" class="edge">
<title>A2&#45;&gt;SAV5</title>
<path fill="none" stroke="#f5a623" stroke-dasharray="5,2" d="M316.23,-80.46C341.02,-84.59 371.16,-89.61 397.7,-94.03"/>
<polygon fill="#f5a623" stroke="#f5a623" points="397.23,-97.5 407.67,-95.7 398.38,-90.6 397.23,-97.5"/>
</g>
<!-- A3 -->
<g id="node4" class="node">
<title>A3</title>
<polygon fill="#444444" stroke="black" points="658.5,-58 572.5,-58 572.5,-22 658.5,-22 658.5,-58"/>
<text text-anchor="middle" x="615.5" y="-43" font-family="Helvetica,sans-Serif" font-size="10.00" fill="white">DEFAULT</text>
<text text-anchor="middle" x="615.5" y="-32" font-family="Helvetica,sans-Serif" font-size="10.00" fill="white">360W</text>
</g>
<!-- A2b&#45;&gt;A3 -->
<!-- A4 -->
<g id="node5" class="node">
<title>A4</title>
<polygon fill="#880000" stroke="black" points="789,-58 715,-58 715,-22 789,-22 789,-58"/>
<text text-anchor="middle" x="752" y="-43" font-family="Helvetica,sans-Serif" font-size="10.00" fill="white">MAX TDP</text>
<text text-anchor="middle" x="752" y="-32" font-family="Helvetica,sans-Serif" font-size="10.00" fill="white">400W</text>
</g>
<!-- A3&#45;&gt;A4 -->
<!-- B1 -->
<g id="node7" class="node">
<title>B1</title>
<polygon fill="#16213e" stroke="black" points="109.5,-280 37.5,-280 37.5,-244 109.5,-244 109.5,-280"/>
<text text-anchor="middle" x="73.5" y="-265" font-family="Helvetica,sans-Serif" font-size="10.00" fill="#aaaaaa">Min</text>
<text text-anchor="middle" x="73.5" y="-254" font-family="Helvetica,sans-Serif" font-size="10.00" fill="#aaaaaa">100W</text>
</g>
<!-- B2 -->
<g id="node8" class="node">
<title>B2</title>
<polygon fill="#0f3460" stroke="black" points="315,-285.5 214,-285.5 214,-238.5 315,-238.5 315,-285.5"/>
<text text-anchor="middle" x="264.5" y="-270.5" font-family="Helvetica,sans-Serif" font-size="10.00" fill="white">ECO LOCKED</text>
<text text-anchor="middle" x="264.5" y="-259.5" font-family="Helvetica,sans-Serif" font-size="10.00" fill="white">~46W idle</text>
<text text-anchor="middle" x="264.5" y="-248.5" font-family="Helvetica,sans-Serif" font-size="10.00" fill="white">(lgc 210MHz)</text>
</g>
<!-- B1&#45;&gt;B2 -->
<!-- B3 -->
<g id="node9" class="node">
<title>B3</title>
<polygon fill="#4fc3f7" stroke="black" points="516,-285.5 413,-285.5 413,-238.5 516,-238.5 516,-285.5"/>
<text text-anchor="middle" x="464.5" y="-270.5" font-family="Helvetica,sans-Serif" font-size="10.00" fill="#1a1a2e">CURRENT CAP</text>
<text text-anchor="middle" x="464.5" y="-259.5" font-family="Helvetica,sans-Serif" font-size="10.00" fill="#1a1a2e">275W</text>
<text text-anchor="middle" x="464.5" y="-248.5" font-family="Helvetica,sans-Serif" font-size="10.00" fill="#1a1a2e">(this repo)</text>
</g>
<!-- B2&#45;&gt;B3 -->
<!-- B3b -->
<g id="node10" class="node">
<title>B3b</title>
<polygon fill="#1a5a7a" stroke="black" points="669,-220.5 562,-220.5 562,-173.5 669,-173.5 669,-220.5"/>
<text text-anchor="middle" x="615.5" y="-205.5" font-family="Helvetica,sans-Serif" font-size="10.00" fill="white">PRIOR CAP</text>
<text text-anchor="middle" x="615.5" y="-194.5" font-family="Helvetica,sans-Serif" font-size="10.00" fill="white">300W</text>
<text text-anchor="middle" x="615.5" y="-183.5" font-family="Helvetica,sans-Serif" font-size="10.00" fill="white">(2026&#45;05&#45;10 early)</text>
</g>
<!-- B3&#45;&gt;B3b -->
<!-- SAV3 -->
<g id="node13" class="node">
<title>SAV3</title>
<polygon fill="#fff8e1" stroke="black" points="666,-285.5 559,-285.5 559,-238.5 672,-238.5 672,-279.5 666,-285.5"/>
<polyline fill="none" stroke="black" points="666,-285.5 666,-279.5 "/>
<polyline fill="none" stroke="black" points="672,-279.5 666,-279.5 "/>
<text text-anchor="middle" x="615.5" y="-270.5" font-family="Helvetica,sans-Serif" font-size="10.00" fill="#1a1a2e">Saved: 65W</text>
<text text-anchor="middle" x="615.5" y="-259.5" font-family="Helvetica,sans-Serif" font-size="10.00" fill="#1a1a2e">(19% reduction)</text>
<text text-anchor="middle" x="615.5" y="-248.5" font-family="Helvetica,sans-Serif" font-size="10.00" fill="#1a1a2e">from factory default</text>
</g>
<!-- B3&#45;&gt;SAV3 -->
<g id="edge11" class="edge">
<title>B3&#45;&gt;SAV3</title>
<path fill="none" stroke="#f5a623" stroke-dasharray="5,2" d="M516.36,-262C526.71,-262 537.74,-262 548.53,-262"/>
<polygon fill="#f5a623" stroke="#f5a623" points="548.76,-265.5 558.76,-262 548.76,-258.5 548.76,-265.5"/>
</g>
<!-- GTT -->
<g id="node14" class="node">
<title>GTT</title>
<polygon fill="#e3f2fd" stroke="black" points="660,-350.5 565,-350.5 565,-303.5 666,-303.5 666,-344.5 660,-350.5"/>
<polyline fill="none" stroke="black" points="660,-350.5 660,-344.5 "/>
<polyline fill="none" stroke="black" points="666,-344.5 660,-344.5 "/>
<text text-anchor="middle" x="615.5" y="-335.5" font-family="Helvetica,sans-Serif" font-size="10.00" fill="#1a1a2e">Target Temp</text>
<text text-anchor="middle" x="615.5" y="-324.5" font-family="Helvetica,sans-Serif" font-size="10.00" fill="#1a1a2e">70°C (&#45;gtt)</text>
<text text-anchor="middle" x="615.5" y="-313.5" font-family="Helvetica,sans-Serif" font-size="10.00" fill="#1a1a2e">Range: 65–91°C</text>
</g>
<!-- B3&#45;&gt;GTT -->
<g id="edge12" class="edge">
<title>B3&#45;&gt;GTT</title>
<path fill="none" stroke="#4fc3f7" stroke-dasharray="5,2" d="M516.36,-284.19C528.98,-289.69 542.61,-295.64 555.57,-301.29"/>
<polygon fill="#4fc3f7" stroke="#4fc3f7" points="554.31,-304.56 564.88,-305.35 557.11,-298.15 554.31,-304.56"/>
</g>
<!-- B4 -->
<g id="node11" class="node">
<title>B4</title>
<polygon fill="#444444" stroke="black" points="795,-215 709,-215 709,-179 795,-179 795,-215"/>
<text text-anchor="middle" x="752" y="-200" font-family="Helvetica,sans-Serif" font-size="10.00" fill="white">DEFAULT</text>
<text text-anchor="middle" x="752" y="-189" font-family="Helvetica,sans-Serif" font-size="10.00" fill="white">340W</text>
</g>
<!-- B3b&#45;&gt;B4 -->
<!-- B5 -->
<g id="node12" class="node">
<title>B5</title>
<polygon fill="#880000" stroke="black" points="906,-215 832,-215 832,-179 906,-179 906,-215"/>
<text text-anchor="middle" x="869" y="-200" font-family="Helvetica,sans-Serif" font-size="10.00" fill="white">MAX TDP</text>
<text text-anchor="middle" x="869" y="-189" font-family="Helvetica,sans-Serif" font-size="10.00" fill="white">375W</text>
</g>
<!-- B4&#45;&gt;B5 -->
<!-- TOT_DEFAULT -->
<g id="node15" class="node">
<title>TOT_DEFAULT</title>
<polygon fill="#444444" stroke="black" points="131,-442.5 16,-442.5 16,-395.5 131,-395.5 131,-442.5"/>
<text text-anchor="middle" x="73.5" y="-427.5" font-family="Helvetica,sans-Serif" font-size="10.00" fill="white">Default Total</text>
<text text-anchor="middle" x="73.5" y="-416.5" font-family="Helvetica,sans-Serif" font-size="10.00" fill="white">700W</text>
<text text-anchor="middle" x="73.5" y="-405.5" font-family="Helvetica,sans-Serif" font-size="10.00" fill="white">(360 + 340)</text>
</g>
<!-- TOT_PRIOR -->
<g id="node16" class="node">
<title>TOT_PRIOR</title>
<polygon fill="#555555" stroke="black" points="322,-442.5 207,-442.5 207,-395.5 322,-395.5 322,-442.5"/>
<text text-anchor="middle" x="264.5" y="-427.5" font-family="Helvetica,sans-Serif" font-size="10.00" fill="white">Prior Cap</text>
<text text-anchor="middle" x="264.5" y="-416.5" font-family="Helvetica,sans-Serif" font-size="10.00" fill="white">600W</text>
<text text-anchor="middle" x="264.5" y="-405.5" font-family="Helvetica,sans-Serif" font-size="10.00" fill="white">(300 + 300)</text>
</g>
<!-- TOT_DEFAULT&#45;&gt;TOT_PRIOR -->
<g id="edge13" class="edge">
<title>TOT_DEFAULT&#45;&gt;TOT_PRIOR</title>
<path fill="none" stroke="#888888" d="M131.21,-419C151.86,-419 175.39,-419 196.83,-419"/>
<polygon fill="#888888" stroke="#888888" points="196.83,-422.5 206.83,-419 196.83,-415.5 196.83,-422.5"/>
<text text-anchor="middle" x="169" y="-421.8" font-family="Helvetica,sans-Serif" font-size="9.00">initial cap</text>
</g>
<!-- TOT_CAPPED -->
<g id="node17" class="node">
<title>TOT_CAPPED</title>
<polygon fill="#4caf50" stroke="black" points="522,-442.5 407,-442.5 407,-395.5 522,-395.5 522,-442.5"/>
<text text-anchor="middle" x="464.5" y="-427.5" font-family="Helvetica,sans-Serif" font-size="10.00" fill="white">Current Cap</text>
<text text-anchor="middle" x="464.5" y="-416.5" font-family="Helvetica,sans-Serif" font-size="10.00" fill="white">550W</text>
<text text-anchor="middle" x="464.5" y="-405.5" font-family="Helvetica,sans-Serif" font-size="10.00" fill="white">(275 + 275)</text>
</g>
<!-- TOT_PRIOR&#45;&gt;TOT_CAPPED -->
<g id="edge14" class="edge">
<title>TOT_PRIOR&#45;&gt;TOT_CAPPED</title>
<path fill="none" stroke="#4caf50" d="M322.24,-419C345.44,-419 372.45,-419 396.6,-419"/>
<polygon fill="#4caf50" stroke="#4caf50" points="396.75,-422.5 406.75,-419 396.75,-415.5 396.75,-422.5"/>
<text text-anchor="middle" x="364.5" y="-421.8" font-family="Helvetica,sans-Serif" font-size="9.00">this session</text>
</g>
<!-- TOT_SAVE -->
<g id="node18" class="node">
<title>TOT_SAVE</title>
<polygon fill="#fff8e1" stroke="black" points="658,-442.5 567,-442.5 567,-395.5 664,-395.5 664,-436.5 658,-442.5"/>
<polyline fill="none" stroke="black" points="658,-442.5 658,-436.5 "/>
<polyline fill="none" stroke="black" points="664,-436.5 658,-436.5 "/>
<text text-anchor="middle" x="615.5" y="-427.5" font-family="Helvetica,sans-Serif" font-size="10.00" fill="#1a1a2e">Total Saved</text>
<text text-anchor="middle" x="615.5" y="-416.5" font-family="Helvetica,sans-Serif" font-size="10.00" fill="#1a1a2e">150W</text>
<text text-anchor="middle" x="615.5" y="-405.5" font-family="Helvetica,sans-Serif" font-size="10.00" fill="#1a1a2e">(21% reduction)</text>
</g>
<!-- TOT_CAPPED&#45;&gt;TOT_SAVE -->
<g id="edge15" class="edge">
<title>TOT_CAPPED&#45;&gt;TOT_SAVE</title>
<path fill="none" stroke="#f5a623" stroke-dasharray="5,2" d="M522.26,-419C533.46,-419 545.24,-419 556.49,-419"/>
<polygon fill="#f5a623" stroke="#f5a623" points="556.64,-422.5 566.64,-419 556.64,-415.5 556.64,-422.5"/>
</g>
</g>
</svg>
