<?xml version="1.0" encoding="UTF-8" standalone="no"?>
<!DOCTYPE svg PUBLIC "-//W3C//DTD SVG 1.1//EN"
 "http://www.w3.org/Graphics/SVG/1.1/DTD/svg11.dtd">
<!-- Generated by graphviz version 2.43.0 (0)
 -->
<!-- Title: ClockVsPower Pages: 1 -->
<svg width="1251pt" height="617pt"
 viewBox="0.00 0.00 1251.40 617.40" xmlns="http://www.w3.org/2000/svg" xmlns:xlink="http://www.w3.org/1999/xlink">
<g id="graph0" class="graph" transform="scale(1 1) rotate(0) translate(43.2 574.2)">
<title>ClockVsPower</title>
<polygon fill="#0d0d1a" stroke="transparent" points="-43.2,43.2 -43.2,-574.2 1208.2,-574.2 1208.2,43.2 -43.2,43.2"/>
<text text-anchor="middle" x="582.5" y="-516.6" font-family="Helvetica,sans-Serif" font-size="13.00">GPU Clock Speed vs. Power Limit — worlock</text>
<text text-anchor="middle" x="582.5" y="-502.6" font-family="Helvetica,sans-Serif" font-size="13.00">RTX 5080 (Blackwell) + RTX 3080 (Ampere)</text>
<g id="clust1" class="cluster">
<title>cluster_5080</title>
<polygon fill="#1a0d1e" stroke="#e94560" points="8,-20 8,-484 224,-484 224,-20 8,-20"/>
<text text-anchor="middle" x="116" y="-471.2" font-family="Helvetica,sans-Serif" font-size="11.00" fill="#e94560">RTX 5080 — GPU 0 (Blackwell, GDDR7)</text>
</g>
<g id="clust2" class="cluster">
<title>cluster_3080</title>
<polygon fill="#0d1a1e" stroke="#4fc3f7" points="232,-8 232,-484 449,-484 449,-8 232,-8"/>
<text text-anchor="middle" x="340.5" y="-471.2" font-family="Helvetica,sans-Serif" font-size="11.00" fill="#4fc3f7">RTX 3080 — GPU 1 (Ampere, GDDR6X)</text>
</g>
<g id="clust3" class="cluster">
<title>cluster_notes</title>
<polygon fill="#1a1a2e" stroke="#f5a623" points="457,-386 457,-487 1157,-487 1157,-386 457,-386"/>
<text text-anchor="middle" x="807" y="-475" font-family="Helvetica,sans-Serif" font-size="10.00" fill="#f5a623">Key Notes</text>
</g>
<!-- C5_MAX -->
<g id="node1" class="node">
<title>C5_MAX</title>
<polygon fill="#440011" stroke="black" points="209.5,-456 26.5,-456 22.5,-452 22.5,-398 205.5,-398 209.5,-402 209.5,-456"/>
<polyline fill="none" stroke="black" points="205.5,-452 22.5,-452 "/>
<polyline fill="none" stroke="black" points="205.5,-452 205.5,-398 "/>
<polyline fill="none" stroke="black" points="205.5,-452 209.5,-456 "/>
<text text-anchor="middle" x="116" y="-436.2" font-family="Helvetica,sans-Serif" font-size="11.00" fill="#ff6688">Factory TDP: 360W</text>
<text text-anchor="middle" x="116" y="-424.2" font-family="Helvetica,sans-Serif" font-size="11.00" fill="#ff6688">Max Boost: 3090 MHz</text>
<text text-anchor="middle" x="116" y="-412.2" font-family="Helvetica,sans-Serif" font-size="11.00" fill="#ff6688">Mem: 15001 MHz GDDR7</text>
</g>
<!-- C5_300 -->
<g id="node2" class="node">
<title>C5_300</title>
<polygon fill="#331122" stroke="black" points="213,-338 19,-338 19,-280 213,-280 213,-338"/>
<text text-anchor="middle" x="116" y="-318.2" font-family="Helvetica,sans-Serif" font-size="11.00" fill="#cc4466">Prior Cap: 300W</text>
<text text-anchor="middle" x="116" y="-306.2" font-family="Helvetica,sans-Serif" font-size="11.00" fill="#cc4466">Boost: ~2800–3000 MHz</text>
<text text-anchor="middle" x="116" y="-294.2" font-family="Helvetica,sans-Serif" font-size="11.00" fill="#cc4466">Mem: 15001 MHz (unchanged)</text>
</g>
<!-- C5_MAX&#45;&gt;C5_300 -->
<g id="edge1" class="edge">
<title>C5_MAX&#45;&gt;C5_300</title>
<path fill="none" stroke="#f5a623" d="M116,-397.92C116,-383.07 116,-364.61 116,-348.45"/>
<polygon fill="#f5a623" stroke="#f5a623" points="119.5,-348.22 116,-338.22 112.5,-348.22 119.5,-348.22"/>
<text text-anchor="middle" x="136" y="-368.8" font-family="Helvetica,sans-Serif" font-size="9.00" fill="#f5a623">initial cap</text>
<text text-anchor="middle" x="136" y="-358.8" font-family="Helvetica,sans-Serif" font-size="9.00" fill="#f5a623">(−60W)</text>
</g>
<!-- C5_275 -->
<g id="node3" class="node">
<title>C5_275</title>
<polygon fill="#e94560" stroke="black" stroke-width="2" points="213,-224 19,-224 19,-154 213,-154 213,-224"/>
<text text-anchor="middle" x="116" y="-204.2" font-family="Helvetica,sans-Serif" font-size="11.00" fill="white">Current Cap: 275W &#160;✦</text>
<text text-anchor="middle" x="116" y="-192.2" font-family="Helvetica,sans-Serif" font-size="11.00" fill="white">Boost: ~2700–2900 MHz</text>
<text text-anchor="middle" x="116" y="-180.2" font-family="Helvetica,sans-Serif" font-size="11.00" fill="white">Mem: 15001 MHz (unchanged)</text>
<text text-anchor="middle" x="116" y="-168.2" font-family="Helvetica,sans-Serif" font-size="11.00" fill="white">Idle observed: 2610 MHz</text>
</g>
<!-- C5_300&#45;&gt;C5_275 -->
<g id="edge2" class="edge">
<title>C5_300&#45;&gt;C5_275</title>
<path fill="none" stroke="#4caf50" d="M116,-279.74C116,-266.22 116,-249.72 116,-234.57"/>
<polygon fill="#4caf50" stroke="#4caf50" points="119.5,-234.35 116,-224.35 112.5,-234.35 119.5,-234.35"/>
<text text-anchor="middle" x="140.5" y="-254.8" font-family="Helvetica,sans-Serif" font-size="9.00" fill="#4caf50">this session</text>
<text text-anchor="middle" x="140.5" y="-244.8" font-family="Helvetica,sans-Serif" font-size="9.00" fill="#4caf50">(−25W)</text>
</g>
<!-- C5_ECO -->
<g id="node4" class="node">
<title>C5_ECO</title>
<polygon fill="#1a1a2e" stroke="black" points="203.5,-86 22.5,-86 22.5,-28 209.5,-28 209.5,-80 203.5,-86"/>
<polyline fill="none" stroke="black" points="203.5,-86 203.5,-80 "/>
<polyline fill="none" stroke="black" points="209.5,-80 203.5,-80 "/>
<text text-anchor="middle" x="116" y="-66.2" font-family="Helvetica,sans-Serif" font-size="11.00" fill="#666688">N/A — Blackwell has no</text>
<text text-anchor="middle" x="116" y="-54.2" font-family="Helvetica,sans-Serif" font-size="11.00" fill="#666688">locked&#45;clock ECO mode</text>
<text text-anchor="middle" x="116" y="-42.2" font-family="Helvetica,sans-Serif" font-size="11.00" fill="#666688">(&#45;lgc not supported)</text>
</g>
<!-- C5_275&#45;&gt;C5_ECO -->
<g id="edge3" class="edge">
<title>C5_275&#45;&gt;C5_ECO</title>
<path fill="none" stroke="#555577" stroke-dasharray="5,2" d="M116,-153.84C116,-136.15 116,-114.5 116,-96.25"/>
<polygon fill="#555577" stroke="#555577" points="119.5,-96.23 116,-86.23 112.5,-96.23 119.5,-96.23"/>
<text text-anchor="middle" x="139" y="-123.8" font-family="Helvetica,sans-Serif" font-size="9.00">ECO mode</text>
</g>
<!-- C3_MAX -->
<g id="node5" class="node">
<title>C3_MAX</title>
<polygon fill="#002233" stroke="black" points="433.5,-456 250.5,-456 246.5,-452 246.5,-398 429.5,-398 433.5,-402 433.5,-456"/>
<polyline fill="none" stroke="black" points="429.5,-452 246.5,-452 "/>
<polyline fill="none" stroke="black" points="429.5,-452 429.5,-398 "/>
<polyline fill="none" stroke="black" points="429.5,-452 433.5,-456 "/>
<text text-anchor="middle" x="340" y="-436.2" font-family="Helvetica,sans-Serif" font-size="11.00" fill="#66ddff">Factory TDP: 340W</text>
<text text-anchor="middle" x="340" y="-424.2" font-family="Helvetica,sans-Serif" font-size="11.00" fill="#66ddff">Max Boost: 2100 MHz</text>
<text text-anchor="middle" x="340" y="-412.2" font-family="Helvetica,sans-Serif" font-size="11.00" fill="#66ddff">Mem: 9501 MHz GDDR6X</text>
</g>
<!-- C3_300 -->
<g id="node6" class="node">
<title>C3_300</title>
<polygon fill="#001a2e" stroke="black" points="434,-338 246,-338 246,-280 434,-280 434,-338"/>
<text text-anchor="middle" x="340" y="-318.2" font-family="Helvetica,sans-Serif" font-size="11.00" fill="#44aacc">Prior Cap: 300W</text>
<text text-anchor="middle" x="340" y="-306.2" font-family="Helvetica,sans-Serif" font-size="11.00" fill="#44aacc">Boost: ~1900–2050 MHz</text>
<text text-anchor="middle" x="340" y="-294.2" font-family="Helvetica,sans-Serif" font-size="11.00" fill="#44aacc">Mem: 9501 MHz (unchanged)</text>
</g>
<!-- C3_MAX&#45;&gt;C3_300 -->
<g id="edge4" class="edge">
<title>C3_MAX&#45;&gt;C3_300</title>
<path fill="none" stroke="#f5a623" d="M340,-397.92C340,-383.07 340,-364.61 340,-348.45"/>
<polygon fill="#f5a623" stroke="#f5a623" points="343.5,-348.22 340,-338.22 336.5,-348.22 343.5,-348.22"/>
<text text-anchor="middle" x="360" y="-368.8" font-family="Helvetica,sans-Serif" font-size="9.00" fill="#f5a623">initial cap</text>
<text text-anchor="middle" x="360" y="-358.8" font-family="Helvetica,sans-Serif" font-size="9.00" fill="#f5a623">(−40W)</text>
</g>
<!-- C3_275 -->
<g id="node7" class="node">
<title>C3_275</title>
<polygon fill="#4fc3f7" stroke="black" stroke-width="2" points="434,-224 246,-224 246,-154 434,-154 434,-224"/>
<text text-anchor="middle" x="340" y="-204.2" font-family="Helvetica,sans-Serif" font-size="11.00" fill="#0d1a1e">Current Cap: 275W &#160;✦</text>
<text text-anchor="middle" x="340" y="-192.2" font-family="Helvetica,sans-Serif" font-size="11.00" fill="#0d1a1e">Boost: ~1800–1950 MHz</text>
<text text-anchor="middle" x="340" y="-180.2" font-family="Helvetica,sans-Serif" font-size="11.00" fill="#0d1a1e">Mem: 9501 MHz (unchanged)</text>
<text text-anchor="middle" x="340" y="-168.2" font-family="Helvetica,sans-Serif" font-size="11.00" fill="#0d1a1e">Idle observed: 1785 MHz</text>
</g>
<!-- C3_300&#45;&gt;C3_275 -->
<g id="edge5" class="edge">
<title>C3_300&#45;&gt;C3_275</title>
<path fill="none" stroke="#4caf50" d="M340,-279.74C340,-266.22 340,-249.72 340,-234.57"/>
<polygon fill="#4caf50" stroke="#4caf50" points="343.5,-234.35 340,-224.35 336.5,-234.35 343.5,-234.35"/>
<text text-anchor="middle" x="364.5" y="-254.8" font-family="Helvetica,sans-Serif" font-size="9.00" fill="#4caf50">this session</text>
<text text-anchor="middle" x="364.5" y="-244.8" font-family="Helvetica,sans-Serif" font-size="9.00" fill="#4caf50">(−25W)</text>
</g>
<!-- C3_ECO -->
<g id="node8" class="node">
<title>C3_ECO</title>
<polygon fill="#0f3460" stroke="black" points="437,-98 243,-98 243,-16 437,-16 437,-98"/>
<text text-anchor="middle" x="340" y="-78.2" font-family="Helvetica,sans-Serif" font-size="11.00" fill="white">ECO Mode (watchdog)</text>
<text text-anchor="middle" x="340" y="-66.2" font-family="Helvetica,sans-Serif" font-size="11.00" fill="white">GPU locked: 210 MHz</text>
<text text-anchor="middle" x="340" y="-54.2" font-family="Helvetica,sans-Serif" font-size="11.00" fill="white">Mem locked: 405 MHz</text>
<text text-anchor="middle" x="340" y="-42.2" font-family="Helvetica,sans-Serif" font-size="11.00" fill="white">Power cap: 275W still enforced</text>
<text text-anchor="middle" x="340" y="-30.2" font-family="Helvetica,sans-Serif" font-size="11.00" fill="white">Typical draw: ~46W</text>
</g>
<!-- C3_275&#45;&gt;C3_ECO -->
<g id="edge6" class="edge">
<title>C3_275&#45;&gt;C3_ECO</title>
<path fill="none" stroke="#4fc3f7" d="M340,-153.84C340,-140.03 340,-123.8 340,-108.66"/>
<polygon fill="#4fc3f7" stroke="#4fc3f7" points="343.5,-108.39 340,-98.39 336.5,-108.39 343.5,-108.39"/>
<text text-anchor="middle" x="372" y="-128.8" font-family="Helvetica,sans-Serif" font-size="9.00" fill="#4fc3f7">ECO mode</text>
<text text-anchor="middle" x="372" y="-118.8" font-family="Helvetica,sans-Serif" font-size="9.00" fill="#4fc3f7">(watchdog idle)</text>
</g>
<!-- N1 -->
<g id="node9" class="node">
<title>N1</title>
<polygon fill="#2a2a0e" stroke="black" points="1142.5,-454.5 941.5,-454.5 941.5,-399.5 1148.5,-399.5 1148.5,-448.5 1142.5,-454.5"/>
<polyline fill="none" stroke="black" points="1142.5,-454.5 1142.5,-448.5 "/>
<polyline fill="none" stroke="black" points="1148.5,-448.5 1142.5,-448.5 "/>
<text text-anchor="middle" x="1045" y="-435.5" font-family="Helvetica,sans-Serif" font-size="10.00" fill="#f5a623">Memory clock is NOT power&#45;gated</text>
<text text-anchor="middle" x="1045" y="-424.5" font-family="Helvetica,sans-Serif" font-size="10.00" fill="#f5a623">GDDR7/GDDR6X run at rated speed</text>
<text text-anchor="middle" x="1045" y="-413.5" font-family="Helvetica,sans-Serif" font-size="10.00" fill="#f5a623">regardless of power cap</text>
</g>
<!-- N2 -->
<g id="node10" class="node">
<title>N2</title>
<polygon fill="#2a2a0e" stroke="black" points="917,-460 711,-460 711,-394 923,-394 923,-454 917,-460"/>
<polyline fill="none" stroke="black" points="917,-460 917,-454 "/>
<polyline fill="none" stroke="black" points="923,-454 917,-454 "/>
<text text-anchor="middle" x="817" y="-441" font-family="Helvetica,sans-Serif" font-size="10.00" fill="#f5a623">For LLM inference: memory bandwidth</text>
<text text-anchor="middle" x="817" y="-430" font-family="Helvetica,sans-Serif" font-size="10.00" fill="#f5a623">matters more than compute clock.</text>
<text text-anchor="middle" x="817" y="-419" font-family="Helvetica,sans-Serif" font-size="10.00" fill="#f5a623">275W cap has negligible impact</text>
<text text-anchor="middle" x="817" y="-408" font-family="Helvetica,sans-Serif" font-size="10.00" fill="#f5a623">on token/s vs 300W.</text>
</g>
<!-- N3 -->
<g id="node11" class="node">
<title>N3</title>
<polygon fill="#2a2a0e" stroke="black" points="687,-460 465,-460 465,-394 693,-394 693,-454 687,-460"/>
<polyline fill="none" stroke="black" points="687,-460 687,-454 "/>
<polyline fill="none" stroke="black" points="693,-454 687,-454 "/>
<text text-anchor="middle" x="579" y="-441" font-family="Helvetica,sans-Serif" font-size="10.00" fill="#f5a623">Boost clocks self&#45;regulate:</text>
<text text-anchor="middle" x="579" y="-430" font-family="Helvetica,sans-Serif" font-size="10.00" fill="#f5a623">GPU draws up to cap, then</text>
<text text-anchor="middle" x="579" y="-419" font-family="Helvetica,sans-Serif" font-size="10.00" fill="#f5a623">frequency drops to stay within budget.</text>
<text text-anchor="middle" x="579" y="-408" font-family="Helvetica,sans-Serif" font-size="10.00" fill="#f5a623">No manual clock locking needed for 5080.</text>
</g>
</g>
</svg>
