<?xml version="1.0" encoding="UTF-8" standalone="no"?>
<!DOCTYPE svg PUBLIC "-//W3C//DTD SVG 1.1//EN"
 "http://www.w3.org/Graphics/SVG/1.1/DTD/svg11.dtd">
<!-- Generated by graphviz version 2.43.0 (0)
 -->
<!-- Title: PowerBudget Pages: 1 -->
<svg width="789pt" height="565pt"
 viewBox="0.00 0.00 789.00 565.00" xmlns="http://www.w3.org/2000/svg" xmlns:xlink="http://www.w3.org/1999/xlink">
<g id="graph0" class="graph" transform="scale(1 1) rotate(0) translate(36 529)">
<title>PowerBudget</title>
<polygon fill="white" stroke="transparent" points="-36,36 -36,-529 753,-529 753,36 -36,36"/>
<text text-anchor="middle" x="358.5" y="-478.6" font-family="Helvetica,sans-Serif" font-size="13.00">Power Budget — Default vs Capped</text>
<text text-anchor="middle" x="358.5" y="-464.6" font-family="Helvetica,sans-Serif" font-size="13.00">RTX 5080 + RTX 3080</text>
<g id="clust1" class="cluster">
<title>cluster_5080</title>
<polygon fill="#1a1a2e" stroke="#e94560" points="29.5,-8 29.5,-146 584.5,-146 584.5,-8 29.5,-8"/>
<text text-anchor="middle" x="307" y="-133.2" font-family="Helvetica,sans-Serif" font-size="11.00" fill="white">RTX 5080 (Blackwell) — GPU 0</text>
</g>
<g id="clust2" class="cluster">
<title>cluster_3080</title>
<polygon fill="#1a1a2e" stroke="#4fc3f7" points="29.5,-154 29.5,-357 709,-357 709,-154 29.5,-154"/>
<text text-anchor="middle" x="369.25" y="-344.2" font-family="Helvetica,sans-Serif" font-size="11.00" fill="white">RTX 3080 (Ampere) — GPU 1</text>
</g>
<g id="clust3" class="cluster">
<title>cluster_total</title>
<polygon fill="#0f3460" stroke="#4caf50" points="8,-365 8,-449 460,-449 460,-365 8,-365"/>
<text text-anchor="middle" x="234" y="-436.2" font-family="Helvetica,sans-Serif" font-size="11.00" fill="white">Combined Budget</text>
</g>
<!-- A1 -->
<g id="node1" class="node">
<title>A1</title>
<polygon fill="#16213e" stroke="black" points="109.5,-58 37.5,-58 37.5,-22 109.5,-22 109.5,-58"/>
<text text-anchor="middle" x="73.5" y="-43" font-family="Helvetica,sans-Serif" font-size="10.00" fill="#aaaaaa">Min</text>
<text text-anchor="middle" x="73.5" y="-32" font-family="Helvetica,sans-Serif" font-size="10.00" fill="#aaaaaa">250W</text>
</g>
<!-- A2 -->
<g id="node2" class="node">
<title>A2</title>
<polygon fill="#e94560" stroke="black" points="303.5,-63.5 217.5,-63.5 217.5,-16.5 303.5,-16.5 303.5,-63.5"/>
<text text-anchor="middle" x="260.5" y="-48.5" font-family="Helvetica,sans-Serif" font-size="10.00" fill="white">ECO CAP</text>
<text text-anchor="middle" x="260.5" y="-37.5" font-family="Helvetica,sans-Serif" font-size="10.00" fill="white">300W</text>
<text text-anchor="middle" x="260.5" y="-26.5" font-family="Helvetica,sans-Serif" font-size="10.00" fill="white">(this repo)</text>
</g>
<!-- A1&#45;&gt;A2 -->
<!-- A3 -->
<g id="node3" class="node">
<title>A3</title>
<polygon fill="#444444" stroke="black" points="446.5,-52 360.5,-52 360.5,-16 446.5,-16 446.5,-52"/>
<text text-anchor="middle" x="403.5" y="-37" font-family="Helvetica,sans-Serif" font-size="10.00" fill="white">DEFAULT</text>
<text text-anchor="middle" x="403.5" y="-26" font-family="Helvetica,sans-Serif" font-size="10.00" fill="white">360W</text>
</g>
<!-- A2&#45;&gt;A3 -->
<!-- SAV5 -->
<g id="node5" class="node">
<title>SAV5</title>
<polygon fill="#fff8e1" stroke="black" points="446,-117.5 355,-117.5 355,-70.5 452,-70.5 452,-111.5 446,-117.5"/>
<polyline fill="none" stroke="black" points="446,-117.5 446,-111.5 "/>
<polyline fill="none" stroke="black" points="452,-111.5 446,-111.5 "/>
<text text-anchor="middle" x="403.5" y="-102.5" font-family="Helvetica,sans-Serif" font-size="10.00" fill="#1a1a2e">Saved: 60W</text>
<text text-anchor="middle" x="403.5" y="-91.5" font-family="Helvetica,sans-Serif" font-size="10.00" fill="#1a1a2e">(17% reduction)</text>
<text text-anchor="middle" x="403.5" y="-80.5" font-family="Helvetica,sans-Serif" font-size="10.00" fill="#1a1a2e">from default</text>
</g>
<!-- A2&#45;&gt;SAV5 -->
<g id="edge4" class="edge">
<title>A2&#45;&gt;SAV5</title>
<path fill="none" stroke="#f5a623" stroke-dasharray="5,2" d="M303.8,-56.2C316.85,-61.2 331.45,-66.79 345.33,-72.1"/>
<polygon fill="#f5a623" stroke="#f5a623" points="344.2,-75.42 354.79,-75.73 346.7,-68.88 344.2,-75.42"/>
</g>
<!-- A4 -->
<g id="node4" class="node">
<title>A4</title>
<polygon fill="#880000" stroke="black" points="576.5,-52 502.5,-52 502.5,-16 576.5,-16 576.5,-52"/>
<text text-anchor="middle" x="539.5" y="-37" font-family="Helvetica,sans-Serif" font-size="10.00" fill="white">MAX TDP</text>
<text text-anchor="middle" x="539.5" y="-26" font-family="Helvetica,sans-Serif" font-size="10.00" fill="white">400W</text>
</g>
<!-- A3&#45;&gt;A4 -->
<!-- B1 -->
<g id="node6" class="node">
<title>B1</title>
<polygon fill="#16213e" stroke="black" points="109.5,-258 37.5,-258 37.5,-222 109.5,-222 109.5,-258"/>
<text text-anchor="middle" x="73.5" y="-243" font-family="Helvetica,sans-Serif" font-size="10.00" fill="#aaaaaa">Min</text>
<text text-anchor="middle" x="73.5" y="-232" font-family="Helvetica,sans-Serif" font-size="10.00" fill="#aaaaaa">100W</text>
</g>
<!-- B2 -->
<g id="node7" class="node">
<title>B2</title>
<polygon fill="#0f3460" stroke="black" points="311,-263.5 210,-263.5 210,-216.5 311,-216.5 311,-263.5"/>
<text text-anchor="middle" x="260.5" y="-248.5" font-family="Helvetica,sans-Serif" font-size="10.00" fill="white">ECO LOCKED</text>
<text text-anchor="middle" x="260.5" y="-237.5" font-family="Helvetica,sans-Serif" font-size="10.00" fill="white">~46W idle</text>
<text text-anchor="middle" x="260.5" y="-226.5" font-family="Helvetica,sans-Serif" font-size="10.00" fill="white">(lgc 210MHz)</text>
</g>
<!-- B1&#45;&gt;B2 -->
<!-- B3 -->
<g id="node8" class="node">
<title>B3</title>
<polygon fill="#4fc3f7" stroke="black" points="446.5,-263.5 360.5,-263.5 360.5,-216.5 446.5,-216.5 446.5,-263.5"/>
<text text-anchor="middle" x="403.5" y="-248.5" font-family="Helvetica,sans-Serif" font-size="10.00" fill="#1a1a2e">ECO CAP</text>
<text text-anchor="middle" x="403.5" y="-237.5" font-family="Helvetica,sans-Serif" font-size="10.00" fill="#1a1a2e">300W</text>
<text text-anchor="middle" x="403.5" y="-226.5" font-family="Helvetica,sans-Serif" font-size="10.00" fill="#1a1a2e">(this repo)</text>
</g>
<!-- B2&#45;&gt;B3 -->
<!-- B4 -->
<g id="node9" class="node">
<title>B4</title>
<polygon fill="#444444" stroke="black" points="582.5,-198 496.5,-198 496.5,-162 582.5,-162 582.5,-198"/>
<text text-anchor="middle" x="539.5" y="-183" font-family="Helvetica,sans-Serif" font-size="10.00" fill="white">DEFAULT</text>
<text text-anchor="middle" x="539.5" y="-172" font-family="Helvetica,sans-Serif" font-size="10.00" fill="white">340W</text>
</g>
<!-- B3&#45;&gt;B4 -->
<!-- SAV3 -->
<g id="node11" class="node">
<title>SAV3</title>
<polygon fill="#fff8e1" stroke="black" points="582,-263.5 491,-263.5 491,-216.5 588,-216.5 588,-257.5 582,-263.5"/>
<polyline fill="none" stroke="black" points="582,-263.5 582,-257.5 "/>
<polyline fill="none" stroke="black" points="588,-257.5 582,-257.5 "/>
<text text-anchor="middle" x="539.5" y="-248.5" font-family="Helvetica,sans-Serif" font-size="10.00" fill="#1a1a2e">Saved: 40W</text>
<text text-anchor="middle" x="539.5" y="-237.5" font-family="Helvetica,sans-Serif" font-size="10.00" fill="#1a1a2e">(12% reduction)</text>
<text text-anchor="middle" x="539.5" y="-226.5" font-family="Helvetica,sans-Serif" font-size="10.00" fill="#1a1a2e">from default</text>
</g>
<!-- B3&#45;&gt;SAV3 -->
<g id="edge9" class="edge">
<title>B3&#45;&gt;SAV3</title>
<path fill="none" stroke="#f5a623" stroke-dasharray="5,2" d="M446.53,-240C457.23,-240 468.91,-240 480.26,-240"/>
<polygon fill="#f5a623" stroke="#f5a623" points="480.54,-243.5 490.54,-240 480.54,-236.5 480.54,-243.5"/>
</g>
<!-- GTT -->
<g id="node12" class="node">
<title>GTT</title>
<polygon fill="#e3f2fd" stroke="black" points="584,-328.5 489,-328.5 489,-281.5 590,-281.5 590,-322.5 584,-328.5"/>
<polyline fill="none" stroke="black" points="584,-328.5 584,-322.5 "/>
<polyline fill="none" stroke="black" points="590,-322.5 584,-322.5 "/>
<text text-anchor="middle" x="539.5" y="-313.5" font-family="Helvetica,sans-Serif" font-size="10.00" fill="#1a1a2e">Target Temp</text>
<text text-anchor="middle" x="539.5" y="-302.5" font-family="Helvetica,sans-Serif" font-size="10.00" fill="#1a1a2e">70°C (&#45;gtt)</text>
<text text-anchor="middle" x="539.5" y="-291.5" font-family="Helvetica,sans-Serif" font-size="10.00" fill="#1a1a2e">Range: 65–91°C</text>
</g>
<!-- B3&#45;&gt;GTT -->
<g id="edge10" class="edge">
<title>B3&#45;&gt;GTT</title>
<path fill="none" stroke="#4fc3f7" stroke-dasharray="5,2" d="M446.53,-260.39C457.31,-265.62 469.1,-271.33 480.53,-276.88"/>
<polygon fill="#4fc3f7" stroke="#4fc3f7" points="479.07,-280.06 489.59,-281.28 482.12,-273.76 479.07,-280.06"/>
</g>
<!-- B5 -->
<g id="node10" class="node">
<title>B5</title>
<polygon fill="#880000" stroke="black" points="701,-198 627,-198 627,-162 701,-162 701,-198"/>
<text text-anchor="middle" x="664" y="-183" font-family="Helvetica,sans-Serif" font-size="10.00" fill="white">MAX TDP</text>
<text text-anchor="middle" x="664" y="-172" font-family="Helvetica,sans-Serif" font-size="10.00" fill="white">375W</text>
</g>
<!-- B4&#45;&gt;B5 -->
<!-- TOT_DEFAULT -->
<g id="node13" class="node">
<title>TOT_DEFAULT</title>
<polygon fill="#444444" stroke="black" points="131,-420.5 16,-420.5 16,-373.5 131,-373.5 131,-420.5"/>
<text text-anchor="middle" x="73.5" y="-405.5" font-family="Helvetica,sans-Serif" font-size="10.00" fill="white">Default Total</text>
<text text-anchor="middle" x="73.5" y="-394.5" font-family="Helvetica,sans-Serif" font-size="10.00" fill="white">700W</text>
<text text-anchor="middle" x="73.5" y="-383.5" font-family="Helvetica,sans-Serif" font-size="10.00" fill="white">(360 + 340)</text>
</g>
<!-- TOT_CAPPED -->
<g id="node14" class="node">
<title>TOT_CAPPED</title>
<polygon fill="#4caf50" stroke="black" points="318,-420.5 203,-420.5 203,-373.5 318,-373.5 318,-420.5"/>
<text text-anchor="middle" x="260.5" y="-405.5" font-family="Helvetica,sans-Serif" font-size="10.00" fill="white">Capped Total</text>
<text text-anchor="middle" x="260.5" y="-394.5" font-family="Helvetica,sans-Serif" font-size="10.00" fill="white">600W</text>
<text text-anchor="middle" x="260.5" y="-383.5" font-family="Helvetica,sans-Serif" font-size="10.00" fill="white">(300 + 300)</text>
</g>
<!-- TOT_DEFAULT&#45;&gt;TOT_CAPPED -->
<g id="edge11" class="edge">
<title>TOT_DEFAULT&#45;&gt;TOT_CAPPED</title>
<path fill="none" stroke="#4caf50" d="M131.01,-397C150.46,-397 172.43,-397 192.63,-397"/>
<polygon fill="#4caf50" stroke="#4caf50" points="192.7,-400.5 202.7,-397 192.7,-393.5 192.7,-400.5"/>
<text text-anchor="middle" x="167" y="-399.8" font-family="Helvetica,sans-Serif" font-size="9.00">this repo</text>
</g>
<!-- TOT_SAVE -->
<g id="node15" class="node">
<title>TOT_SAVE</title>
<polygon fill="#fff8e1" stroke="black" points="446,-420.5 355,-420.5 355,-373.5 452,-373.5 452,-414.5 446,-420.5"/>
<polyline fill="none" stroke="black" points="446,-420.5 446,-414.5 "/>
<polyline fill="none" stroke="black" points="452,-414.5 446,-414.5 "/>
<text text-anchor="middle" x="403.5" y="-405.5" font-family="Helvetica,sans-Serif" font-size="10.00" fill="#1a1a2e">Total Saved</text>
<text text-anchor="middle" x="403.5" y="-394.5" font-family="Helvetica,sans-Serif" font-size="10.00" fill="#1a1a2e">100W</text>
<text text-anchor="middle" x="403.5" y="-383.5" font-family="Helvetica,sans-Serif" font-size="10.00" fill="#1a1a2e">(14% reduction)</text>
</g>
<!-- TOT_CAPPED&#45;&gt;TOT_SAVE -->
<g id="edge12" class="edge">
<title>TOT_CAPPED&#45;&gt;TOT_SAVE</title>
<path fill="none" stroke="#f5a623" stroke-dasharray="5,2" d="M318.04,-397C326.74,-397 335.73,-397 344.47,-397"/>
<polygon fill="#f5a623" stroke="#f5a623" points="344.56,-400.5 354.56,-397 344.56,-393.5 344.56,-400.5"/>
</g>
</g>
</svg>
