<?xml version="1.0" encoding="UTF-8" standalone="no"?>
<!DOCTYPE svg PUBLIC "-//W3C//DTD SVG 1.1//EN"
 "http://www.w3.org/Graphics/SVG/1.1/DTD/svg11.dtd">
<!-- Generated by graphviz version 2.43.0 (0)
 -->
<!-- Title: WatchdogStateMachine Pages: 1 -->
<svg width="750pt" height="799pt"
 viewBox="0.00 0.00 750.40 799.42" xmlns="http://www.w3.org/2000/svg" xmlns:xlink="http://www.w3.org/1999/xlink">
<g id="graph0" class="graph" transform="scale(1 1) rotate(0) translate(43.2 756.22)">
<title>WatchdogStateMachine</title>
<polygon fill="white" stroke="transparent" points="-43.2,43.2 -43.2,-756.22 707.2,-756.22 707.2,43.2 -43.2,43.2"/>
<text text-anchor="middle" x="332" y="-698.62" font-family="Helvetica,sans-Serif" font-size="13.00">gpu&#45;watchdog State Machine</text>
<text text-anchor="middle" x="332" y="-684.62" font-family="Helvetica,sans-Serif" font-size="13.00">RTX 3080 Load&#45;Based Eco/Perf Switching</text>
<!-- INIT -->
<g id="node1" class="node">
<title>INIT</title>
<ellipse fill="#1a1a2e" stroke="black" cx="411" cy="-636.01" rx="93.18" ry="41.02"/>
<text text-anchor="middle" x="411" y="-645.21" font-family="Helvetica,sans-Serif" font-size="11.00" fill="white">INIT</text>
<text text-anchor="middle" x="411" y="-633.21" font-family="Helvetica,sans-Serif" font-size="11.00" fill="white">Watchdog Started</text>
<text text-anchor="middle" x="411" y="-621.21" font-family="Helvetica,sans-Serif" font-size="11.00" fill="white">Monitoring GPU 1</text>
</g>
<!-- ECO -->
<g id="node2" class="node">
<title>ECO</title>
<polygon fill="#0f3460" stroke="black" points="519,-548 303,-548 303,-430 519,-430 519,-548"/>
<text text-anchor="middle" x="411" y="-528.2" font-family="Helvetica,sans-Serif" font-size="11.00" fill="white">STATE: ECO</text>
<text text-anchor="middle" x="411" y="-516.2" font-family="Helvetica,sans-Serif" font-size="11.00" fill="white">──────────────</text>
<text text-anchor="middle" x="411" y="-504.2" font-family="Helvetica,sans-Serif" font-size="11.00" fill="white">GPU 0 (5080): 300W</text>
<text text-anchor="middle" x="411" y="-492.2" font-family="Helvetica,sans-Serif" font-size="11.00" fill="white">GPU 1 (3080): 300W</text>
<text text-anchor="middle" x="411" y="-480.2" font-family="Helvetica,sans-Serif" font-size="11.00" fill="white">Clocks: locked</text>
<text text-anchor="middle" x="411" y="-468.2" font-family="Helvetica,sans-Serif" font-size="11.00" fill="white">210 MHz GPU / 405 MHz Mem</text>
<text text-anchor="middle" x="411" y="-456.2" font-family="Helvetica,sans-Serif" font-size="11.00" fill="white">Target Temp: 70°C</text>
<text text-anchor="middle" x="411" y="-444.2" font-family="Helvetica,sans-Serif" font-size="11.00" fill="white">Typical: 46W · 54°C</text>
</g>
<!-- INIT&#45;&gt;ECO -->
<g id="edge1" class="edge">
<title>INIT&#45;&gt;ECO</title>
<path fill="none" stroke="black" d="M411,-594.62C411,-583.36 411,-570.8 411,-558.4"/>
<polygon fill="black" stroke="black" points="414.5,-558.06 411,-548.06 407.5,-558.06 414.5,-558.06"/>
<text text-anchor="middle" x="437" y="-569" font-family="Helvetica,sans-Serif" font-size="10.00">boot default</text>
</g>
<!-- POLL -->
<g id="node4" class="node">
<title>POLL</title>
<polygon fill="#f5a623" stroke="black" points="189,-372 0,-314 189,-256 378,-314 189,-372"/>
<text text-anchor="middle" x="189" y="-323.2" font-family="Helvetica,sans-Serif" font-size="11.00" fill="#1a1a2e">Poll every 10s</text>
<text text-anchor="middle" x="189" y="-311.2" font-family="Helvetica,sans-Serif" font-size="11.00" fill="#1a1a2e">nvidia&#45;smi util + compute apps</text>
<text text-anchor="middle" x="189" y="-299.2" font-family="Helvetica,sans-Serif" font-size="11.00" fill="#1a1a2e">GPU 1 only</text>
</g>
<!-- ECO&#45;&gt;POLL -->
<g id="edge2" class="edge">
<title>ECO&#45;&gt;POLL</title>
<path fill="none" stroke="black" d="M336.46,-429.91C308.26,-407.94 276.54,-383.22 249.76,-362.35"/>
<polygon fill="black" stroke="black" points="251.65,-359.39 241.61,-356 247.35,-364.91 251.65,-359.39"/>
<text text-anchor="middle" x="331.5" y="-398.5" font-family="Helvetica,sans-Serif" font-size="10.00">10s tick</text>
</g>
<!-- NOTE1 -->
<g id="node6" class="node">
<title>NOTE1</title>
<polygon fill="#fff9c4" stroke="black" points="561.5,-341.5 396.5,-341.5 396.5,-286.5 567.5,-286.5 567.5,-335.5 561.5,-341.5"/>
<polyline fill="none" stroke="black" points="561.5,-341.5 561.5,-335.5 "/>
<polyline fill="none" stroke="black" points="567.5,-335.5 561.5,-335.5 "/>
<text text-anchor="middle" x="482" y="-322.5" font-family="Helvetica,sans-Serif" font-size="10.00">Both modes enforce</text>
<text text-anchor="middle" x="482" y="-311.5" font-family="Helvetica,sans-Serif" font-size="10.00">300W cap on both GPUs</text>
<text text-anchor="middle" x="482" y="-300.5" font-family="Helvetica,sans-Serif" font-size="10.00">&#45;gtt 70°C on 3080 always set</text>
</g>
<!-- ECO&#45;&gt;NOTE1 -->
<g id="edge9" class="edge">
<title>ECO&#45;&gt;NOTE1</title>
<path fill="none" stroke="#999999" stroke-dasharray="5,2" d="M434.84,-429.91C445.56,-403.8 457.87,-373.81 467.22,-351.01"/>
<polygon fill="#999999" stroke="#999999" points="470.48,-352.29 471.04,-341.71 464,-349.63 470.48,-352.29"/>
</g>
<!-- PERF -->
<g id="node3" class="node">
<title>PERF</title>
<polygon fill="#e94560" stroke="black" points="218,-198 2,-198 2,-92 218,-92 218,-198"/>
<text text-anchor="middle" x="110" y="-178.2" font-family="Helvetica,sans-Serif" font-size="11.00" fill="white">STATE: PERF</text>
<text text-anchor="middle" x="110" y="-166.2" font-family="Helvetica,sans-Serif" font-size="11.00" fill="white">──────────────</text>
<text text-anchor="middle" x="110" y="-154.2" font-family="Helvetica,sans-Serif" font-size="11.00" fill="white">GPU 0 (5080): 300W</text>
<text text-anchor="middle" x="110" y="-142.2" font-family="Helvetica,sans-Serif" font-size="11.00" fill="white">GPU 1 (3080): 300W</text>
<text text-anchor="middle" x="110" y="-130.2" font-family="Helvetica,sans-Serif" font-size="11.00" fill="white">Clocks: auto</text>
<text text-anchor="middle" x="110" y="-118.2" font-family="Helvetica,sans-Serif" font-size="11.00" fill="white">Target Temp: 70°C</text>
<text text-anchor="middle" x="110" y="-106.2" font-family="Helvetica,sans-Serif" font-size="11.00" fill="white">Typical: 124W · 59°C</text>
</g>
<!-- PERF&#45;&gt;POLL -->
<g id="edge5" class="edge">
<title>PERF&#45;&gt;POLL</title>
<path fill="none" stroke="black" d="M156.59,-198.16C160.48,-203.94 164.05,-209.94 167,-216 171.91,-226.09 175.75,-237.3 178.74,-248.42"/>
<polygon fill="black" stroke="black" points="175.34,-249.28 181.15,-258.14 182.14,-247.59 175.34,-249.28"/>
<text text-anchor="middle" x="193.5" y="-224.5" font-family="Helvetica,sans-Serif" font-size="10.00">10s tick</text>
</g>
<!-- NOTE2 -->
<g id="node7" class="node">
<title>NOTE2</title>
<polygon fill="#fff9c4" stroke="black" points="188,-55 26,-55 26,0 194,0 194,-49 188,-55"/>
<polyline fill="none" stroke="black" points="188,-55 188,-49 "/>
<polyline fill="none" stroke="black" points="194,-49 188,-49 "/>
<text text-anchor="middle" x="110" y="-36" font-family="Helvetica,sans-Serif" font-size="10.00">Watchdog monitors</text>
<text text-anchor="middle" x="110" y="-25" font-family="Helvetica,sans-Serif" font-size="10.00">GPU 1 (3080) only</text>
<text text-anchor="middle" x="110" y="-14" font-family="Helvetica,sans-Serif" font-size="10.00">both GPUs get mode switch</text>
</g>
<!-- PERF&#45;&gt;NOTE2 -->
<g id="edge10" class="edge">
<title>PERF&#45;&gt;NOTE2</title>
<path fill="none" stroke="#999999" stroke-dasharray="5,2" d="M110,-91.99C110,-83.07 110,-73.96 110,-65.53"/>
<polygon fill="#999999" stroke="#999999" points="113.5,-65.28 110,-55.28 106.5,-65.28 113.5,-65.28"/>
</g>
<!-- POLL&#45;&gt;ECO -->
<g id="edge4" class="edge">
<title>POLL&#45;&gt;ECO</title>
<path fill="none" stroke="#4caf50" d="M279.17,-344.56C304.98,-355.96 331.82,-370.94 353,-390 362.84,-398.85 371.5,-409.77 378.92,-421.08"/>
<polygon fill="#4caf50" stroke="#4caf50" points="376.09,-423.15 384.35,-429.77 382.02,-419.44 376.09,-423.15"/>
<text text-anchor="middle" x="388" y="-404" font-family="Helvetica,sans-Serif" font-size="10.00" fill="#4caf50">no load</text>
<text text-anchor="middle" x="388" y="-393" font-family="Helvetica,sans-Serif" font-size="10.00" fill="#4caf50">stay</text>
</g>
<!-- POLL&#45;&gt;PERF -->
<g id="edge3" class="edge">
<title>POLL&#45;&gt;PERF</title>
<path fill="none" stroke="#e94560" d="M117.87,-277.62C103.46,-266.96 90.22,-253.8 82,-238 77.2,-228.78 76.39,-218.6 77.92,-208.48"/>
<polygon fill="#e94560" stroke="#e94560" points="81.4,-208.94 80.16,-198.42 74.57,-207.42 81.4,-208.94"/>
<text text-anchor="middle" x="124.5" y="-230" font-family="Helvetica,sans-Serif" font-size="10.00" fill="#e94560">load &gt; 0 || util &gt; 2%</text>
<text text-anchor="middle" x="124.5" y="-219" font-family="Helvetica,sans-Serif" font-size="10.00" fill="#e94560">instant switch</text>
</g>
<!-- IDLE -->
<g id="node5" class="node">
<title>IDLE</title>
<ellipse fill="#16213e" stroke="black" cx="349" cy="-145" rx="84.71" ry="41.02"/>
<text text-anchor="middle" x="349" y="-154.2" font-family="Helvetica,sans-Serif" font-size="11.00" fill="white">Increment</text>
<text text-anchor="middle" x="349" y="-142.2" font-family="Helvetica,sans-Serif" font-size="11.00" fill="white">idle_count</text>
<text text-anchor="middle" x="349" y="-130.2" font-family="Helvetica,sans-Serif" font-size="11.00" fill="white">(max=6 → 60s)</text>
</g>
<!-- POLL&#45;&gt;IDLE -->
<g id="edge6" class="edge">
<title>POLL&#45;&gt;IDLE</title>
<path fill="none" stroke="#4fc3f7" d="M213.83,-263.33C223.24,-247.21 234.89,-229.92 248,-216 259.45,-203.85 273.34,-192.58 287.1,-182.8"/>
<polygon fill="#4fc3f7" stroke="#4fc3f7" points="289.4,-185.47 295.63,-176.91 285.42,-179.71 289.4,-185.47"/>
<text text-anchor="middle" x="287.5" y="-224.5" font-family="Helvetica,sans-Serif" font-size="10.00" fill="#4fc3f7">no load (in PERF)</text>
</g>
<!-- IDLE&#45;&gt;ECO -->
<g id="edge8" class="edge">
<title>IDLE&#45;&gt;ECO</title>
<path fill="none" stroke="#4caf50" d="M427.14,-161.27C479.39,-175.98 544.34,-203.98 577,-256 604.41,-299.66 600.83,-326.28 577,-372 565.38,-394.3 547.3,-413.19 527.28,-428.83"/>
<polygon fill="#4caf50" stroke="#4caf50" points="525.1,-426.09 519.21,-434.89 529.31,-431.69 525.1,-426.09"/>
<text text-anchor="middle" x="630" y="-322.5" font-family="Helvetica,sans-Serif" font-size="10.00" fill="#4caf50">idle_count &gt;= 6</text>
<text text-anchor="middle" x="630" y="-311.5" font-family="Helvetica,sans-Serif" font-size="10.00" fill="#4caf50">(60s idle)</text>
<text text-anchor="middle" x="630" y="-300.5" font-family="Helvetica,sans-Serif" font-size="10.00" fill="#4caf50">switch to ECO</text>
</g>
<!-- IDLE&#45;&gt;POLL -->
<g id="edge7" class="edge">
<title>IDLE&#45;&gt;POLL</title>
<path fill="none" stroke="#f5a623" d="M346.64,-186.26C343.9,-203.62 338.29,-223.27 327,-238 315.07,-253.57 298.94,-266.32 281.92,-276.59"/>
<polygon fill="#f5a623" stroke="#f5a623" points="279.88,-273.73 272.95,-281.74 283.36,-279.8 279.88,-273.73"/>
<text text-anchor="middle" x="370" y="-230" font-family="Helvetica,sans-Serif" font-size="10.00" fill="#f5a623">idle_count &lt; 6</text>
<text text-anchor="middle" x="370" y="-219" font-family="Helvetica,sans-Serif" font-size="10.00" fill="#f5a623">stay in PERF</text>
</g>
</g>
</svg>
