<?xml version="1.0" encoding="UTF-8" standalone="no"?>
<!DOCTYPE svg PUBLIC "-//W3C//DTD SVG 1.1//EN"
 "http://www.w3.org/Graphics/SVG/1.1/DTD/svg11.dtd">
<!-- Generated by graphviz version 2.43.0 (0)
 -->
<!-- Title: Logo Pages: 1 -->
<svg width="455pt" height="144pt"
 viewBox="0.00 0.00 455.50 144.00" xmlns="http://www.w3.org/2000/svg" xmlns:xlink="http://www.w3.org/1999/xlink">
<g id="graph0" class="graph" transform="scale(0.69 0.69) rotate(0) translate(28.8 180.51)">
<title>Logo</title>
<polygon fill="#0d1117" stroke="transparent" points="-28.8,28.8 -28.8,-180.51 633.28,-180.51 633.28,28.8 -28.8,28.8"/>
<!-- TITLE -->
<g id="node1" class="node">
<title>TITLE</title>
<polygon fill="lightgrey" stroke="transparent" points="477.58,-151.5 88.58,-151.5 88.58,-106.5 477.58,-106.5 477.58,-151.5"/>
<text text-anchor="middle" x="283.08" y="-122.1" font-family="Helvetica,sans-Serif" font-weight="bold" font-size="28.00" fill="#e94560">GPU THERMAL WORLOCK</text>
</g>
<!-- GPU0 -->
<g id="node2" class="node">
<title>GPU0</title>
<polygon fill="#1a1a2e" stroke="black" points="146.58,-60 35.58,-60 31.58,-56 31.58,-10 142.58,-10 146.58,-14 146.58,-60"/>
<polyline fill="none" stroke="black" points="142.58,-56 31.58,-56 "/>
<polyline fill="none" stroke="black" points="142.58,-56 142.58,-10 "/>
<polyline fill="none" stroke="black" points="142.58,-56 146.58,-60 "/>
<text text-anchor="middle" x="89.08" y="-44.2" font-family="Helvetica,sans-Serif" font-weight="bold" font-size="11.00" fill="#e94560">RTX 5080</text>
<text text-anchor="middle" x="89.08" y="-32.2" font-family="Helvetica,sans-Serif" font-weight="bold" font-size="11.00" fill="#e94560">Blackwell</text>
<text text-anchor="middle" x="89.08" y="-20.2" font-family="Helvetica,sans-Serif" font-weight="bold" font-size="11.00" fill="#e94560">275W cap</text>
</g>
<!-- TITLE&#45;&gt;GPU0 -->
<!-- GPU1 -->
<g id="node3" class="node">
<title>GPU1</title>
<polygon fill="#1a1a2e" stroke="black" points="340.58,-60 229.58,-60 225.58,-56 225.58,-10 336.58,-10 340.58,-14 340.58,-60"/>
<polyline fill="none" stroke="black" points="336.58,-56 225.58,-56 "/>
<polyline fill="none" stroke="black" points="336.58,-56 336.58,-10 "/>
<polyline fill="none" stroke="black" points="336.58,-56 340.58,-60 "/>
<text text-anchor="middle" x="283.08" y="-44.2" font-family="Helvetica,sans-Serif" font-weight="bold" font-size="11.00" fill="#4fc3f7">RTX 3080</text>
<text text-anchor="middle" x="283.08" y="-32.2" font-family="Helvetica,sans-Serif" font-weight="bold" font-size="11.00" fill="#4fc3f7">Ampere</text>
<text text-anchor="middle" x="283.08" y="-20.2" font-family="Helvetica,sans-Serif" font-weight="bold" font-size="11.00" fill="#4fc3f7">275W · 70°C</text>
</g>
<!-- TITLE&#45;&gt;GPU1 -->
<!-- TEMP -->
<g id="node4" class="node">
<title>TEMP</title>
<ellipse fill="#e94560" stroke="black" cx="498.08" cy="-35" rx="72.66" ry="35.21"/>
<text text-anchor="middle" x="498.08" y="-44.2" font-family="Helvetica,sans-Serif" font-weight="bold" font-size="11.00" fill="white">Thermal</text>
<text text-anchor="middle" x="498.08" y="-32.2" font-family="Helvetica,sans-Serif" font-weight="bold" font-size="11.00" fill="white">Management</text>
<text text-anchor="middle" x="498.08" y="-20.2" font-family="Helvetica,sans-Serif" font-weight="bold" font-size="11.00" fill="white">worlock · 2026</text>
</g>
<!-- TITLE&#45;&gt;TEMP -->
</g>
</svg>
